<svg width="178" height="40" viewBox="0 0 178 40" fill="none" xmlns="http://www.w3.org/2000/svg">
<rect x="3" y="3" width="175" height="37" rx="5" fill="black"/>
<rect x="0.75" y="0.75" width="173.5" height="35.5" rx="4.25" fill="#E582BE" stroke="black" stroke-width="1.5"/>
<path d="M16.576 20.624H17.728C17.76 21.072 17.8933 21.472 18.128 21.824C18.3627 22.176 18.6827 22.4533 19.088 22.656C19.504 22.8587 19.9893 22.96 20.544 22.96C21.024 22.96 21.424 22.8907 21.744 22.752C22.0747 22.6027 22.32 22.4 22.48 22.144C22.6507 21.888 22.736 21.5893 22.736 21.248C22.736 20.896 22.6507 20.6133 22.48 20.4C22.3093 20.1867 22.064 20.0053 21.744 19.856C21.424 19.7067 21.0453 19.5627 20.608 19.424C20.192 19.296 19.7707 19.1467 19.344 18.976C18.9173 18.8053 18.5173 18.5973 18.144 18.352C17.7813 18.1067 17.488 17.8133 17.264 17.472C17.04 17.12 16.928 16.6987 16.928 16.208C16.928 15.728 17.056 15.28 17.312 14.864C17.5787 14.4373 17.9627 14.096 18.464 13.84C18.976 13.5733 19.5893 13.44 20.304 13.44C21.424 13.44 22.2613 13.744 22.816 14.352C23.3707 14.96 23.6373 15.7653 23.616 16.768H22.464C22.4427 16.0107 22.2293 15.4667 21.824 15.136C21.4187 14.8053 20.8907 14.64 20.24 14.64C19.696 14.64 19.2213 14.768 18.816 15.024C18.4107 15.2693 18.208 15.6587 18.208 16.192C18.208 16.4267 18.2507 16.6347 18.336 16.816C18.432 16.9867 18.5813 17.1467 18.784 17.296C18.9973 17.4453 19.28 17.5947 19.632 17.744C19.9947 17.8827 20.4373 18.0373 20.96 18.208C21.3013 18.3147 21.648 18.4427 22 18.592C22.3627 18.7413 22.6933 18.928 22.992 19.152C23.3013 19.376 23.5467 19.664 23.728 20.016C23.92 20.3573 24.016 20.7893 24.016 21.312C24.016 21.8133 23.8933 22.2827 23.648 22.72C23.4133 23.1467 23.04 23.4933 22.528 23.76C22.0267 24.0267 21.376 24.16 20.576 24.16C19.8933 24.16 19.3067 24.0693 18.816 23.888C18.336 23.696 17.9413 23.4507 17.632 23.152C17.3227 22.8533 17.0827 22.544 16.912 22.224C16.752 21.8933 16.6453 21.584 16.592 21.296C16.5387 21.008 16.5333 20.784 16.576 20.624ZM25.1363 16H29.8403V17.2H25.1363V16ZM26.8483 13.92H28.1283V24H26.8483V13.92ZM34.2203 24.16C33.5909 24.16 33.0096 23.984 32.4763 23.632C31.9536 23.2693 31.5323 22.7787 31.2122 22.16C30.9029 21.5307 30.7483 20.816 30.7483 20.016C30.7483 19.216 30.9083 18.5013 31.2283 17.872C31.5483 17.2427 31.9803 16.7467 32.5243 16.384C33.0789 16.0213 33.6976 15.84 34.3802 15.84C35.1269 15.84 35.6923 16.032 36.0763 16.416C36.4709 16.7893 36.7376 17.2907 36.8763 17.92C37.0256 18.5493 37.1003 19.248 37.1003 20.016C37.1003 20.4213 37.0576 20.864 36.9723 21.344C36.8869 21.8133 36.7376 22.2667 36.5243 22.704C36.3216 23.1307 36.0336 23.4827 35.6603 23.76C35.2869 24.0267 34.8069 24.16 34.2203 24.16ZM34.5403 22.944C35.0843 22.944 35.5323 22.8107 35.8843 22.544C36.2469 22.2773 36.5136 21.9253 36.6843 21.488C36.8549 21.04 36.9403 20.5493 36.9403 20.016C36.9403 19.4293 36.8496 18.9173 36.6683 18.48C36.4976 18.032 36.2309 17.6853 35.8683 17.44C35.5163 17.184 35.0736 17.056 34.5403 17.056C33.7403 17.056 33.1216 17.3387 32.6843 17.904C32.2469 18.4587 32.0283 19.1627 32.0283 20.016C32.0283 20.5813 32.1349 21.088 32.3483 21.536C32.5723 21.9733 32.8709 22.32 33.2443 22.576C33.6283 22.8213 34.0603 22.944 34.5403 22.944ZM36.9403 16H38.2203V24H37.0523C37.0523 24 37.0416 23.904 37.0203 23.712C37.0096 23.52 36.9936 23.296 36.9723 23.04C36.9509 22.784 36.9403 22.5707 36.9403 22.4V16ZM40.3056 16H41.5856V24H40.3056V16ZM44.1456 17.2C43.6016 17.2 43.143 17.3387 42.7696 17.616C42.407 17.8827 42.119 18.2133 41.9056 18.608C41.703 18.992 41.5696 19.3653 41.5056 19.728L41.4896 18.8C41.4896 18.704 41.511 18.544 41.5536 18.32C41.5963 18.096 41.6763 17.8453 41.7936 17.568C41.911 17.28 42.0656 17.008 42.2576 16.752C42.4603 16.4853 42.7163 16.2667 43.0256 16.096C43.335 15.9253 43.7083 15.84 44.1456 15.84V17.2ZM45.0269 16H49.7309V17.2H45.0269V16ZM46.7389 13.92H48.0189V24H46.7389V13.92ZM62.6025 13.6L58.9225 20.432V24H57.6425V20.432L53.9625 13.6H55.4025L58.5705 19.6H58.0585L61.1625 13.6H62.6025ZM66.0745 24.16C65.3918 24.16 64.7518 23.9947 64.1545 23.664C63.5572 23.3333 63.0718 22.8587 62.6985 22.24C62.3358 21.6107 62.1545 20.8693 62.1545 20.016C62.1545 19.1627 62.3358 18.4267 62.6985 17.808C63.0718 17.1787 63.5572 16.6933 64.1545 16.352C64.7518 16.0107 65.3918 15.84 66.0745 15.84C66.7572 15.84 67.3918 16.0107 67.9785 16.352C68.5758 16.6933 69.0558 17.1787 69.4185 17.808C69.7812 18.4267 69.9625 19.1627 69.9625 20.016C69.9625 20.8693 69.7812 21.6107 69.4185 22.24C69.0558 22.8587 68.5758 23.3333 67.9785 23.664C67.3918 23.9947 66.7572 24.16 66.0745 24.16ZM66.0745 22.96C66.5225 22.96 66.9438 22.848 67.3385 22.624C67.7332 22.4 68.0532 22.0693 68.2985 21.632C68.5545 21.184 68.6825 20.6453 68.6825 20.016C68.6825 19.3867 68.5545 18.8533 68.2985 18.416C68.0532 17.968 67.7332 17.6267 67.3385 17.392C66.9438 17.1573 66.5225 17.04 66.0745 17.04C65.6265 17.04 65.1998 17.1573 64.7945 17.392C64.3998 17.616 64.0745 17.952 63.8185 18.4C63.5625 18.8373 63.4345 19.376 63.4345 20.016C63.4345 20.6453 63.5572 21.184 63.8025 21.632C64.0585 22.0693 64.3892 22.4 64.7945 22.624C65.1998 22.848 65.6265 22.96 66.0745 22.96ZM78.3709 24H77.0909V16H78.3709V24ZM77.1709 20.272L77.1869 20.72C77.1762 20.848 77.1442 21.0453 77.0909 21.312C77.0482 21.5787 76.9682 21.8773 76.8509 22.208C76.7442 22.528 76.5842 22.8373 76.3709 23.136C76.1682 23.4347 75.9015 23.68 75.5709 23.872C75.2509 24.064 74.8509 24.16 74.3709 24.16C74.0615 24.16 73.7415 24.112 73.4109 24.016C73.0909 23.9307 72.7922 23.7867 72.5149 23.584C72.2375 23.3707 72.0135 23.0773 71.8429 22.704C71.6722 22.3307 71.5869 21.8667 71.5869 21.312V16H72.8669V20.992C72.8669 21.472 72.9415 21.8507 73.0909 22.128C73.2509 22.3947 73.4642 22.5867 73.7309 22.704C73.9975 22.8213 74.2962 22.88 74.6269 22.88C75.1709 22.88 75.6242 22.7413 75.9869 22.464C76.3495 22.1867 76.6269 21.8453 76.8189 21.44C77.0109 21.0347 77.1282 20.6453 77.1709 20.272ZM80.4463 16H81.7263V24H80.4463V16ZM84.2863 17.2C83.7423 17.2 83.2836 17.3387 82.9103 17.616C82.5476 17.8827 82.2596 18.2133 82.0463 18.608C81.8436 18.992 81.7103 19.3653 81.6463 19.728L81.6303 18.8C81.6303 18.704 81.6516 18.544 81.6943 18.32C81.7369 18.096 81.8169 17.8453 81.9343 17.568C82.0516 17.28 82.2063 17.008 82.3983 16.752C82.6009 16.4853 82.8569 16.2667 83.1663 16.096C83.4756 15.9253 83.8489 15.84 84.2863 15.84V17.2ZM90.4789 21.28V20.08H95.4709V21.28H90.4789ZM88.3669 24L92.3189 13.6H93.6629L97.6469 24H96.2709L92.7989 14.592H93.1829L89.7109 24H88.3669ZM102.033 24.16C101.393 24.16 100.806 23.984 100.273 23.632C99.7501 23.2693 99.3341 22.7787 99.0247 22.16C98.7154 21.5307 98.5608 20.816 98.5608 20.016C98.5608 19.216 98.7101 18.5013 99.0088 17.872C99.3074 17.2427 99.7181 16.7467 100.241 16.384C100.763 16.0213 101.361 15.84 102.033 15.84C102.63 15.84 103.115 15.952 103.489 16.176C103.873 16.3893 104.166 16.688 104.369 17.072C104.571 17.456 104.71 17.8987 104.785 18.4C104.87 18.9013 104.913 19.44 104.913 20.016C104.913 20.4213 104.87 20.864 104.785 21.344C104.699 21.8133 104.55 22.2667 104.337 22.704C104.134 23.1307 103.846 23.4827 103.473 23.76C103.099 24.0267 102.619 24.16 102.033 24.16ZM102.353 22.944C102.897 22.944 103.345 22.8107 103.697 22.544C104.059 22.2773 104.326 21.9253 104.497 21.488C104.667 21.04 104.753 20.5493 104.753 20.016C104.753 19.4293 104.662 18.9173 104.481 18.48C104.31 18.032 104.043 17.6853 103.681 17.44C103.329 17.184 102.886 17.056 102.353 17.056C101.553 17.056 100.934 17.3387 100.497 17.904C100.059 18.4587 99.8408 19.1627 99.8408 20.016C99.8408 20.5813 99.9474 21.088 100.161 21.536C100.385 21.9733 100.683 22.32 101.057 22.576C101.441 22.8213 101.873 22.944 102.353 22.944ZM104.753 12.8H106.033V24H104.865C104.843 23.7653 104.817 23.488 104.785 23.168C104.763 22.848 104.753 22.592 104.753 22.4V12.8ZM111.441 22.896H111.057L113.505 16H114.897L111.857 24H110.657L107.633 16H109.025L111.441 22.896ZM121.688 21.424H122.888C122.803 21.9467 122.611 22.416 122.312 22.832C122.024 23.2373 121.64 23.5627 121.16 23.808C120.691 24.0427 120.147 24.16 119.528 24.16C118.782 24.16 118.11 23.984 117.512 23.632C116.915 23.2693 116.44 22.7787 116.088 22.16C115.747 21.5307 115.576 20.816 115.576 20.016C115.576 19.216 115.742 18.5013 116.072 17.872C116.414 17.2427 116.878 16.7467 117.464 16.384C118.051 16.0213 118.712 15.84 119.448 15.84C120.227 15.84 120.883 16.016 121.416 16.368C121.96 16.7093 122.36 17.216 122.616 17.888C122.883 18.5493 122.99 19.3653 122.936 20.336H116.856C116.91 20.8587 117.054 21.3173 117.288 21.712C117.523 22.1067 117.832 22.416 118.216 22.64C118.6 22.8533 119.038 22.96 119.528 22.96C120.072 22.96 120.531 22.8213 120.904 22.544C121.288 22.256 121.55 21.8827 121.688 21.424ZM119.496 17.04C118.835 17.04 118.28 17.232 117.832 17.616C117.384 18 117.086 18.5227 116.936 19.184H121.624C121.582 18.48 121.352 17.9467 120.936 17.584C120.531 17.2213 120.051 17.04 119.496 17.04ZM124.587 16H125.867V24H124.587V16ZM128.619 15.84C129.046 15.84 129.43 15.904 129.771 16.032C130.112 16.16 130.4 16.3467 130.635 16.592C130.87 16.8373 131.051 17.136 131.179 17.488C131.307 17.8293 131.371 18.2187 131.371 18.656V24H130.091V18.976C130.091 18.3573 129.947 17.8933 129.659 17.584C129.371 17.2747 128.939 17.12 128.363 17.12C127.926 17.12 127.52 17.232 127.147 17.456C126.774 17.68 126.464 17.9893 126.219 18.384C125.984 18.768 125.84 19.216 125.787 19.728L125.771 18.8C125.824 18.352 125.931 17.9467 126.091 17.584C126.262 17.2213 126.47 16.912 126.715 16.656C126.971 16.3893 127.259 16.1867 127.579 16.048C127.91 15.9093 128.256 15.84 128.619 15.84ZM132.886 16H137.59V17.2H132.886V16ZM134.598 13.92H135.878V24H134.598V13.92ZM145.887 24H144.607V16H145.887V24ZM144.687 20.272L144.703 20.72C144.692 20.848 144.66 21.0453 144.607 21.312C144.564 21.5787 144.484 21.8773 144.367 22.208C144.26 22.528 144.1 22.8373 143.887 23.136C143.684 23.4347 143.417 23.68 143.087 23.872C142.767 24.064 142.367 24.16 141.887 24.16C141.577 24.16 141.257 24.112 140.927 24.016C140.607 23.9307 140.308 23.7867 140.031 23.584C139.753 23.3707 139.529 23.0773 139.359 22.704C139.188 22.3307 139.103 21.8667 139.103 21.312V16H140.383V20.992C140.383 21.472 140.457 21.8507 140.607 22.128C140.767 22.3947 140.98 22.5867 141.247 22.704C141.513 22.8213 141.812 22.88 142.143 22.88C142.687 22.88 143.14 22.7413 143.503 22.464C143.865 22.1867 144.143 21.8453 144.335 21.44C144.527 21.0347 144.644 20.6453 144.687 20.272ZM147.962 16H149.242V24H147.962V16ZM151.802 17.2C151.258 17.2 150.799 17.3387 150.426 17.616C150.063 17.8827 149.775 18.2133 149.562 18.608C149.359 18.992 149.226 19.3653 149.162 19.728L149.146 18.8C149.146 18.704 149.167 18.544 149.21 18.32C149.253 18.096 149.333 17.8453 149.45 17.568C149.567 17.28 149.722 17.008 149.914 16.752C150.117 16.4853 150.373 16.2667 150.682 16.096C150.991 15.9253 151.365 15.84 151.802 15.84V17.2ZM158.907 21.424H160.107C160.022 21.9467 159.83 22.416 159.531 22.832C159.243 23.2373 158.859 23.5627 158.379 23.808C157.91 24.0427 157.366 24.16 156.747 24.16C156 24.16 155.328 23.984 154.731 23.632C154.134 23.2693 153.659 22.7787 153.307 22.16C152.966 21.5307 152.795 20.816 152.795 20.016C152.795 19.216 152.96 18.5013 153.291 17.872C153.632 17.2427 154.096 16.7467 154.683 16.384C155.27 16.0213 155.931 15.84 156.667 15.84C157.446 15.84 158.102 16.016 158.635 16.368C159.179 16.7093 159.579 17.216 159.835 17.888C160.102 18.5493 160.208 19.3653 160.155 20.336H154.075C154.128 20.8587 154.272 21.3173 154.507 21.712C154.742 22.1067 155.051 22.416 155.435 22.64C155.819 22.8533 156.256 22.96 156.747 22.96C157.291 22.96 157.75 22.8213 158.123 22.544C158.507 22.256 158.768 21.8827 158.907 21.424ZM156.715 17.04C156.054 17.04 155.499 17.232 155.051 17.616C154.603 18 154.304 18.5227 154.155 19.184H158.843C158.8 18.48 158.571 17.9467 158.155 17.584C157.75 17.2213 157.27 17.04 156.715 17.04ZM162.254 12.8H163.502V20.784H162.254V12.8ZM163.71 22.432V24H162.046V22.432H163.71Z" fill="black"/>
</svg>
