<svg width="280" height="13" viewBox="0 0 280 13" fill="none" xmlns="http://www.w3.org/2000/svg">
<path d="M19.2209 4.26672C20.3459 4.26672 21.0929 5.06772 21.0929 6.30072V9.26172H19.4189V6.53472C19.4189 5.96772 19.2029 5.68872 18.7799 5.68872C18.2579 5.68872 17.9609 6.04872 17.9609 6.66972V9.26172H16.2869V4.40172H17.4659L17.6909 4.90572C18.0509 4.50072 18.5909 4.26672 19.2209 4.26672ZM24.5267 9.42372C22.9427 9.42372 21.8087 8.33472 21.8087 6.83172C21.8087 5.32872 22.9427 4.24872 24.5267 4.24872C26.1107 4.24872 27.2537 5.32872 27.2537 6.83172C27.2537 8.33472 26.1107 9.42372 24.5267 9.42372ZM24.5267 7.92072C25.1387 7.92072 25.5797 7.47972 25.5797 6.84072C25.5797 6.20172 25.1387 5.75172 24.5267 5.75172C23.9237 5.75172 23.4827 6.19272 23.4827 6.84072C23.4827 7.47972 23.9237 7.92072 24.5267 7.92072ZM33.4055 4.40172H35.1155L33.5675 9.26172H32.2175L31.2635 7.09272L30.3185 9.26172H28.9685L27.3845 4.40172H29.1395L29.8685 6.95772L31.0205 4.41972H31.4705L32.6855 6.98472L33.4055 4.40172ZM35.6932 9.26172V2.64672H37.3672V9.26172H35.6932ZM43.4218 6.78672C43.4218 6.93972 43.4128 7.08372 43.3948 7.23672H39.7858C39.8938 7.79472 40.2448 8.08272 40.7758 8.08272C41.1628 8.08272 41.4958 7.91172 41.6488 7.62372H43.3228C42.9808 8.73072 41.9908 9.42372 40.7758 9.42372C39.2548 9.42372 38.1388 8.31672 38.1388 6.83172C38.1388 5.34672 39.2458 4.24872 40.7758 4.24872C42.3418 4.24872 43.4218 5.36472 43.4218 6.78672ZM40.7758 5.56272C40.2898 5.56272 39.9478 5.82372 39.8128 6.30972H41.7748C41.6308 5.82372 41.2798 5.56272 40.7758 5.56272ZM47.6574 2.64672H49.3134V9.26172H48.0804L47.9184 8.90172C47.5224 9.23472 47.0184 9.43272 46.4514 9.43272C44.9664 9.43272 43.9044 8.34372 43.9044 6.83172C43.9044 5.32872 44.9664 4.24872 46.4514 4.24872C46.9014 4.24872 47.3154 4.36572 47.6574 4.58172V2.64672ZM46.6764 7.94772C47.3064 7.94772 47.7654 7.47072 47.7654 6.84072C47.7654 6.20172 47.3064 5.72472 46.6764 5.72472C46.0554 5.72472 45.5874 6.20172 45.5874 6.84072C45.5874 7.47072 46.0554 7.94772 46.6764 7.94772ZM54.2591 4.40172L55.3841 4.41072V8.73072C55.3841 10.2517 54.3851 11.1967 52.7831 11.1967C51.4061 11.1967 50.4431 10.5037 50.2181 9.35172H51.8291C51.9461 9.67572 52.3601 9.85572 52.7651 9.85572C53.3321 9.85572 53.7821 9.49572 53.7821 8.91972V8.77572C53.4131 9.00072 52.9811 9.13572 52.5131 9.13572C51.1181 9.13572 50.0831 8.10072 50.0831 6.69672C50.0831 5.31072 51.1181 4.24872 52.5131 4.24872C53.0981 4.24872 53.6291 4.46472 54.0431 4.81572L54.2591 4.40172ZM52.7921 7.75872C53.3951 7.75872 53.8271 7.31772 53.8271 6.69672C53.8271 6.08472 53.3951 5.63472 52.7921 5.63472C52.1891 5.63472 51.7481 6.08472 51.7481 6.69672C51.7481 7.31772 52.1801 7.75872 52.7921 7.75872ZM61.4482 6.78672C61.4482 6.93972 61.4392 7.08372 61.4212 7.23672H57.8122C57.9202 7.79472 58.2712 8.08272 58.8022 8.08272C59.1892 8.08272 59.5222 7.91172 59.6752 7.62372H61.3492C61.0072 8.73072 60.0172 9.42372 58.8022 9.42372C57.2812 9.42372 56.1652 8.31672 56.1652 6.83172C56.1652 5.34672 57.2722 4.24872 58.8022 4.24872C60.3682 4.24872 61.4482 5.36472 61.4482 6.78672ZM58.8022 5.56272C58.3162 5.56272 57.9742 5.82372 57.8392 6.30972H59.8012C59.6572 5.82372 59.3062 5.56272 58.8022 5.56272ZM73.5587 4.38372H74.0087V5.91372H73.3517C72.7667 5.91372 72.5147 6.17472 72.5147 6.79572V9.26172H70.8407V4.40172H71.9657L72.2267 4.94172C72.5687 4.54572 72.9827 4.38372 73.5587 4.38372ZM74.6465 3.79872V2.37672H76.3025V3.79872H74.6465ZM74.6375 9.26172V4.40172H76.3115V9.26172H74.6375ZM80.5031 4.40172H82.2851L80.3321 9.26172H78.8201L76.8401 4.40172H78.6761L79.5941 7.28172L80.5031 4.40172ZM87.6132 6.78672C87.6132 6.93972 87.6042 7.08372 87.5862 7.23672H83.9772C84.0852 7.79472 84.4362 8.08272 84.9672 8.08272C85.3542 8.08272 85.6872 7.91172 85.8402 7.62372H87.5142C87.1722 8.73072 86.1822 9.42372 84.9672 9.42372C83.4462 9.42372 82.3302 8.31672 82.3302 6.83172C82.3302 5.34672 83.4372 4.24872 84.9672 4.24872C86.5332 4.24872 87.6132 5.36472 87.6132 6.78672ZM84.9672 5.56272C84.4812 5.56272 84.1392 5.82372 84.0042 6.30972H85.9662C85.8222 5.82372 85.4712 5.56272 84.9672 5.56272ZM90.2468 9.42372C88.9238 9.42372 88.1228 8.72172 88.1048 7.66872H89.7158C89.7158 8.02872 89.9678 8.19072 90.2828 8.19072C90.5258 8.19072 90.7598 8.06472 90.7598 7.81272C90.7598 7.53372 90.3908 7.45272 89.9228 7.38072C89.1668 7.25472 88.1678 7.02972 88.1678 5.85072C88.1678 4.87872 89.0048 4.24872 90.2468 4.24872C91.4798 4.24872 92.2898 4.90572 92.3078 5.88672H90.7328C90.7328 5.58072 90.5258 5.43672 90.2288 5.43672C89.9588 5.43672 89.7788 5.57172 89.7788 5.79672C89.7788 6.06672 90.1478 6.13872 90.6068 6.21972C91.3808 6.35472 92.3978 6.51672 92.3978 7.74072C92.3978 8.75772 91.5428 9.42372 90.2468 9.42372ZM107.838 4.40172H109.089V9.26172H107.793L107.649 8.91972C107.253 9.24372 106.749 9.42372 106.182 9.42372C104.697 9.42372 103.635 8.34372 103.635 6.83172C103.635 5.32872 104.697 4.25772 106.182 4.25772C106.758 4.25772 107.271 4.44672 107.667 4.77972L107.838 4.40172ZM106.407 7.94772C107.037 7.94772 107.496 7.47072 107.496 6.83172C107.496 6.20172 107.037 5.73372 106.407 5.73372C105.777 5.73372 105.318 6.20172 105.318 6.83172C105.318 7.47072 105.777 7.94772 106.407 7.94772ZM112.017 9.42372C110.694 9.42372 109.893 8.72172 109.875 7.66872H111.486C111.486 8.02872 111.738 8.19072 112.053 8.19072C112.296 8.19072 112.53 8.06472 112.53 7.81272C112.53 7.53372 112.161 7.45272 111.693 7.38072C110.937 7.25472 109.938 7.02972 109.938 5.85072C109.938 4.87872 110.775 4.24872 112.017 4.24872C113.25 4.24872 114.06 4.90572 114.078 5.88672H112.503C112.503 5.58072 112.296 5.43672 111.999 5.43672C111.729 5.43672 111.549 5.57172 111.549 5.79672C111.549 6.06672 111.918 6.13872 112.377 6.21972C113.151 6.35472 114.168 6.51672 114.168 7.74072C114.168 8.75772 113.313 9.42372 112.017 9.42372ZM117.546 7.80372H118.185V9.26172H117.033C115.962 9.26172 115.305 8.60472 115.305 7.52472V5.69772H114.414V5.30172L116.592 2.98872H116.943V4.40172H118.158V5.69772H116.979V7.24572C116.979 7.58772 117.195 7.80372 117.546 7.80372ZM123.93 6.78672C123.93 6.93972 123.921 7.08372 123.903 7.23672H120.294C120.402 7.79472 120.753 8.08272 121.284 8.08272C121.671 8.08272 122.004 7.91172 122.157 7.62372H123.831C123.489 8.73072 122.499 9.42372 121.284 9.42372C119.763 9.42372 118.647 8.31672 118.647 6.83172C118.647 5.34672 119.754 4.24872 121.284 4.24872C122.85 4.24872 123.93 5.36472 123.93 6.78672ZM121.284 5.56272C120.798 5.56272 120.456 5.82372 120.321 6.30972H122.283C122.139 5.82372 121.788 5.56272 121.284 5.56272ZM127.409 4.38372H127.859V5.91372H127.202C126.617 5.91372 126.365 6.17472 126.365 6.79572V9.26172H124.691V4.40172H125.816L126.077 4.94172C126.419 4.54572 126.833 4.38372 127.409 4.38372ZM131.799 4.40172H133.599L131.556 9.04572C130.899 10.5397 130.305 11.0707 129.045 11.0707H128.469V9.63972H128.937C129.576 9.63972 129.765 9.46872 129.99 8.86572L127.983 4.40172H129.801L130.836 7.08372L131.799 4.40172Z" fill="#3F3F3F"/>
<path d="M15.8841 9.26172H13.8231L12.0141 6.48072V9.26172H10.2771V2.96172H12.0141V5.62572L13.6791 2.96172H15.6951L13.6791 6.02172L15.8841 9.26172ZM66.789 2.96172C68.697 2.96172 70.047 4.26672 70.047 6.11172C70.047 7.94772 68.697 9.26172 66.789 9.26172H64.242V2.96172H66.789ZM66.708 7.67772C67.644 7.67772 68.265 7.03872 68.265 6.11172C68.265 5.17572 67.644 4.55472 66.708 4.55472H65.988V7.67772H66.708ZM103.198 9.26172H101.443L100.957 5.63472L99.2826 9.27972H98.7696L97.1046 5.64372L96.6186 9.26172H94.8546L95.8086 2.96172H97.5456L99.0306 6.39072L100.525 2.96172H102.253L103.198 9.26172Z" fill="black"/>
<line x1="145.62" y1="6.03027" x2="279.321" y2="6.03027" stroke="#3F3F3F"/>
</svg>
