<svg width="302" height="43" viewBox="0 0 302 43" fill="none" xmlns="http://www.w3.org/2000/svg">
<rect x="3" y="3" width="298.297" height="40" rx="5" fill="black"/>
<rect x="3" y="3" width="298.297" height="40" rx="5" fill="#FEF2E8"/>
<rect x="0.75" y="0.75" width="296.797" height="38.5" rx="4.25" fill="black"/>
<rect x="0.75" y="0.75" width="296.797" height="38.5" rx="4.25" fill="#E582BE"/>
<rect x="0.75" y="0.75" width="296.797" height="38.5" rx="4.25" stroke="black" stroke-width="1.5"/>
<path d="M108.271 20.512H110.431C110.473 20.8747 110.639 21.2053 110.927 21.504C111.225 21.792 111.615 22.0213 112.095 22.192C112.575 22.352 113.113 22.432 113.711 22.432C114.255 22.432 114.703 22.3733 115.055 22.256C115.407 22.1387 115.668 21.9733 115.839 21.76C116.009 21.5467 116.095 21.2907 116.095 20.992C116.095 20.704 115.988 20.4853 115.775 20.336C115.561 20.176 115.225 20.048 114.767 19.952C114.308 19.8453 113.705 19.7387 112.959 19.632C112.372 19.5467 111.817 19.4293 111.295 19.28C110.772 19.12 110.308 18.9173 109.903 18.672C109.508 18.4267 109.193 18.128 108.959 17.776C108.735 17.4133 108.623 16.9867 108.623 16.496C108.623 15.888 108.793 15.3547 109.135 14.896C109.487 14.4373 110.004 14.08 110.687 13.824C111.369 13.568 112.207 13.44 113.199 13.44C114.692 13.44 115.839 13.76 116.639 14.4C117.449 15.0293 117.844 15.8987 117.823 17.008H115.743C115.7 16.3787 115.433 15.9253 114.943 15.648C114.463 15.3707 113.855 15.232 113.119 15.232C112.436 15.232 111.871 15.3333 111.423 15.536C110.985 15.7387 110.767 16.0853 110.767 16.576C110.767 16.768 110.82 16.9387 110.927 17.088C111.033 17.2267 111.215 17.3493 111.471 17.456C111.727 17.5627 112.073 17.664 112.511 17.76C112.948 17.856 113.492 17.952 114.143 18.048C114.751 18.1333 115.3 18.2507 115.791 18.4C116.292 18.5387 116.719 18.7253 117.071 18.96C117.433 19.184 117.711 19.472 117.903 19.824C118.095 20.176 118.191 20.608 118.191 21.12C118.191 21.7493 118.025 22.2987 117.695 22.768C117.375 23.2267 116.873 23.584 116.191 23.84C115.519 24.096 114.644 24.224 113.567 24.224C112.799 24.224 112.121 24.144 111.535 23.984C110.948 23.8133 110.441 23.5893 110.015 23.312C109.588 23.0347 109.241 22.7307 108.975 22.4C108.708 22.0693 108.516 21.7387 108.399 21.408C108.292 21.0773 108.249 20.7787 108.271 20.512ZM122.18 12.56V14.384H119.764V12.56H122.18ZM119.924 16.048H122.004V24H119.924V16.048ZM128.045 22.784C127.181 22.784 126.419 22.656 125.757 22.4C125.107 22.1333 124.6 21.744 124.237 21.232C123.875 20.72 123.693 20.1013 123.693 19.376C123.693 18.6613 123.869 18.0427 124.221 17.52C124.573 16.9973 125.075 16.592 125.725 16.304C126.387 16.016 127.16 15.872 128.045 15.872C128.291 15.872 128.525 15.888 128.749 15.92C128.984 15.952 129.213 15.9947 129.437 16.048L133.453 16.064V17.632C132.909 17.6427 132.355 17.5787 131.789 17.44C131.235 17.2907 130.744 17.1307 130.317 16.96L130.269 16.848C130.632 17.0187 130.973 17.232 131.293 17.488C131.613 17.7333 131.869 18.0213 132.061 18.352C132.264 18.672 132.365 19.0453 132.365 19.472C132.365 20.1653 132.189 20.7627 131.837 21.264C131.485 21.7547 130.984 22.1333 130.333 22.4C129.693 22.656 128.931 22.784 128.045 22.784ZM130.717 27.28V26.896C130.717 26.4053 130.557 26.064 130.237 25.872C129.928 25.68 129.501 25.584 128.957 25.584H126.477C125.997 25.584 125.592 25.5467 125.261 25.472C124.941 25.3973 124.685 25.2907 124.493 25.152C124.301 25.0133 124.163 24.848 124.077 24.656C123.992 24.4747 123.949 24.2773 123.949 24.064C123.949 23.6373 124.088 23.3173 124.365 23.104C124.643 22.88 125.016 22.7307 125.485 22.656C125.955 22.5813 126.472 22.5653 127.037 22.608L128.045 22.784C127.373 22.8053 126.872 22.864 126.541 22.96C126.221 23.0453 126.061 23.2213 126.061 23.488C126.061 23.648 126.125 23.776 126.253 23.872C126.381 23.9573 126.563 24 126.797 24H129.405C130.12 24 130.728 24.0747 131.229 24.224C131.741 24.384 132.131 24.6453 132.397 25.008C132.664 25.3813 132.797 25.888 132.797 26.528V27.28H130.717ZM128.045 21.28C128.504 21.28 128.904 21.2053 129.245 21.056C129.597 20.9067 129.869 20.6933 130.061 20.416C130.253 20.128 130.349 19.7867 130.349 19.392C130.349 18.9867 130.253 18.64 130.061 18.352C129.869 18.064 129.603 17.8453 129.261 17.696C128.92 17.536 128.515 17.456 128.045 17.456C127.587 17.456 127.181 17.536 126.829 17.696C126.477 17.8453 126.205 18.064 126.013 18.352C125.821 18.64 125.725 18.9867 125.725 19.392C125.725 19.7867 125.821 20.128 126.013 20.416C126.205 20.6933 126.472 20.9067 126.813 21.056C127.165 21.2053 127.576 21.28 128.045 21.28ZM134.812 16.048H136.892V24H134.812V16.048ZM140.588 15.872C141.078 15.872 141.532 15.936 141.948 16.064C142.364 16.192 142.726 16.3893 143.036 16.656C143.345 16.9227 143.585 17.264 143.756 17.68C143.926 18.0853 144.012 18.5707 144.012 19.136V24H141.932V19.504C141.932 18.832 141.766 18.3413 141.436 18.032C141.116 17.712 140.588 17.552 139.852 17.552C139.297 17.552 138.796 17.6587 138.348 17.872C137.9 18.0853 137.537 18.3573 137.26 18.688C136.982 19.008 136.822 19.344 136.78 19.696L136.764 18.88C136.817 18.5067 136.94 18.144 137.132 17.792C137.324 17.44 137.58 17.12 137.9 16.832C138.23 16.5333 138.62 16.2987 139.068 16.128C139.516 15.9573 140.022 15.872 140.588 15.872ZM158.965 24H156.885V16.048H158.965V24ZM156.997 20.176L157.013 20.72C156.991 20.8693 156.938 21.088 156.853 21.376C156.767 21.6533 156.634 21.952 156.453 22.272C156.282 22.592 156.058 22.9013 155.781 23.2C155.503 23.488 155.162 23.728 154.757 23.92C154.351 24.1013 153.871 24.192 153.317 24.192C152.879 24.192 152.447 24.1387 152.021 24.032C151.605 23.9253 151.226 23.7493 150.885 23.504C150.543 23.248 150.271 22.9067 150.069 22.48C149.866 22.0533 149.765 21.5147 149.765 20.864V16.048H151.845V20.512C151.845 21.024 151.925 21.4293 152.085 21.728C152.255 22.016 152.501 22.2187 152.821 22.336C153.141 22.4533 153.519 22.512 153.957 22.512C154.533 22.512 155.029 22.3893 155.445 22.144C155.861 21.888 156.197 21.5787 156.453 21.216C156.719 20.8533 156.901 20.5067 156.997 20.176ZM166.651 24.192C165.947 24.192 165.344 24.0693 164.843 23.824C164.352 23.568 163.952 23.2373 163.643 22.832C163.333 22.416 163.104 21.9627 162.955 21.472C162.805 20.9813 162.731 20.5013 162.731 20.032C162.731 19.4453 162.8 18.9013 162.939 18.4C163.088 17.8987 163.317 17.4613 163.627 17.088C163.936 16.704 164.336 16.4053 164.827 16.192C165.328 15.9787 165.936 15.872 166.651 15.872C167.451 15.872 168.171 16.048 168.811 16.4C169.451 16.752 169.957 17.2427 170.331 17.872C170.715 18.4907 170.907 19.2107 170.907 20.032C170.907 20.8747 170.715 21.6107 170.331 22.24C169.947 22.8587 169.435 23.3387 168.795 23.68C168.155 24.0213 167.44 24.192 166.651 24.192ZM165.979 22.576C166.544 22.576 167.035 22.4693 167.451 22.256C167.877 22.0427 168.203 21.7493 168.427 21.376C168.661 20.992 168.779 20.544 168.779 20.032C168.779 19.264 168.533 18.6453 168.043 18.176C167.563 17.7067 166.875 17.472 165.979 17.472C165.413 17.472 164.896 17.5733 164.427 17.776C163.968 17.9787 163.605 18.272 163.339 18.656C163.072 19.0293 162.939 19.488 162.939 20.032C162.939 20.544 163.061 20.992 163.307 21.376C163.552 21.7493 163.904 22.0427 164.363 22.256C164.821 22.4693 165.36 22.576 165.979 22.576ZM160.859 16.048H162.843L162.939 18.16V27.2H160.859V16.048Z" fill="black"/>
<ellipse cx="191.961" cy="20.1366" rx="10.0004" ry="9.86364" fill="black"/>
<path d="M200.171 18.8636C200.171 24.0286 195.924 28.2273 190.671 28.2273C185.417 28.2273 181.17 24.0286 181.17 18.8636C181.17 13.6987 185.417 9.5 190.671 9.5C195.924 9.5 200.171 13.6987 200.171 18.8636Z" fill="#FEF2E8" stroke="black"/>
<path d="M188.554 14.8503L188.554 14.8503C188.653 14.757 188.785 14.7052 188.921 14.7052C189.058 14.7052 189.189 14.757 189.288 14.8503L188.554 14.8503ZM188.554 14.8503L188.552 14.8528L188.548 14.8561L188.554 14.8503ZM188.55 22.914C188.5 22.9604 188.461 23.0163 188.434 23.0785C188.407 23.1407 188.393 23.2077 188.393 23.2755C188.393 23.3433 188.407 23.4103 188.434 23.4725C188.46 23.534 188.499 23.5894 188.548 23.6355L188.552 23.6388L188.552 23.6389L188.554 23.6413C188.653 23.7347 188.785 23.7864 188.921 23.7864C189.058 23.7864 189.189 23.7347 189.288 23.6413C189.288 23.6413 189.288 23.6413 189.288 23.6413L193.558 19.6287L188.571 15.079C188.552 15.1223 188.543 15.169 188.543 15.2161C188.543 15.2633 188.552 15.3099 188.571 15.3533C188.59 15.3966 188.618 15.4357 188.652 15.4682L188.55 15.5775L188.55 15.5776C188.55 15.5776 188.55 15.5776 188.55 15.5776L192.454 19.2465L188.55 22.914ZM188.55 22.914L188.652 23.0235M188.55 22.914L188.55 22.9141L188.652 23.0235M188.652 23.0235C188.618 23.0559 188.59 23.095 188.571 23.1384C188.552 23.1817 188.543 23.2283 188.543 23.2755C188.543 23.3226 188.552 23.3693 188.571 23.4126C188.59 23.4559 188.618 23.495 188.652 23.5275V23.0235ZM193.558 18.8629L189.288 14.8503L193.558 19.6287C193.61 19.5795 193.652 19.5202 193.681 19.4544C193.709 19.3885 193.724 19.3176 193.724 19.2458C193.724 19.174 193.709 19.1031 193.681 19.0372C193.652 18.9714 193.61 18.9121 193.558 18.8629Z" fill="black" stroke="black" stroke-width="0.3"/>
</svg>
