<svg width="282" height="437" viewBox="0 0 282 437" fill="none" xmlns="http://www.w3.org/2000/svg">
<path d="M18.6228 32.5944H80.2549L82.9153 47.6698L84.6889 58.7547L87.3493 73.8302L87.7927 75.6038L97.9908 78.7076L109.962 81.8113L109.076 77.3774L107.302 62.7453L105.972 52.5472L103.755 35.2547V32.5944H203.962L203.076 38.8019L199.972 57.8679L196.868 75.6038L210.613 71.6132L220.812 68.5095L219.925 74.717L217.708 86.2453L217.264 88.0189H218.151L219.038 86.2453L224.802 79.151L228.793 74.2736L232.34 69.8396L236.33 64.9623L233.227 65.4057L222.142 68.5095H221.255L221.698 63.6321L224.802 46.3396L227.019 34.3679L227.462 32.5944H265.595L262.934 35.6981L258.5 40.1321L255.396 43.6793L249.189 50.3302L245.198 55.2076L240.764 60.0849L238.104 63.6321L259.83 57.4246L265.595 56.0944V71.1698L251.849 76.0472L235 82.2547L233.67 88.0189L231.01 104.868L228.793 117.283L226.132 133.245L231.896 131.028L240.321 127.481L256.283 121.274L262.934 118.613L265.595 118.17V156.302L261.161 159.849L254.066 164.726L247.859 169.16L240.321 174.481L231.896 180.245L226.132 184.236L220.812 187.783H219.925V188.67L231.896 186.009L247.859 182.906L264.264 179.802H265.595V194.434L261.604 195.321L244.755 197.094L227.906 199.311L220.368 200.198L219.038 200.642L218.595 214.387V221.481L219.038 235.67L265.595 241.434V256.509L246.529 252.962L226.576 248.972L220.368 247.642V248.528L222.585 249.415L232.34 256.066L241.208 262.274L248.746 267.594L257.613 273.802L265.151 279.123V280.009L257.613 281.34L246.085 283.113L231.896 285.774L226.132 287.104H223.915L224.359 287.991L242.095 294.642L248.302 296.859L251.849 298.189L262.934 302.179L265.595 303.509V318.142L261.161 316.811L250.076 312.377L237.661 307.5L231.01 304.84L225.689 302.623L227.019 308.387L229.679 324.349V326.566L227.019 325.679L216.378 320.802L211.057 318.585L212.83 325.236L216.821 345.189V346.962L221.255 348.293L232.34 352.726L233.67 353.17L233.227 346.962L230.566 331.443L230.123 327.009L232.783 327.896L242.095 331.887L252.736 336.321L265.151 341.198L265.595 341.642V365.142L261.161 363.811L234.557 354.057L237.661 371.793L244.755 374.009L265.151 379.774L265.595 380.217V403.274L262.491 400.613L256.283 393.962L251.406 388.642L248.302 385.094L244.312 380.66L240.321 375.783L238.547 373.566L237.661 373.123L241.208 395.293L242.095 401.057V403.274H227.462L225.689 395.293L223.029 379.774L221.255 370.019V367.802L224.359 368.245L235.444 371.349L236.774 371.793L231.896 365.585L226.132 358.934L223.029 354.943L218.151 348.736L217.708 348.293L218.151 352.283L220.812 366.028L220.368 367.359L204.849 362.925L196.868 360.264L195.981 357.604L192.434 338.094V337.208L197.312 338.538L202.189 340.755L214.161 345.632L215.934 346.519L214.604 344.302L209.283 337.208L204.849 331.443L199.529 324.349L193.764 316.368L188.444 309.274L186.227 306.17L184.01 308.387L180.019 312.821L174.698 321.245L171.151 328.34H159.623L161.396 348.293L161.84 352.726L166.717 339.425L170.264 329.67H171.151L173.812 349.179L176.915 373.123L180.462 402.387V403.274H165.387L164.057 386.868L162.727 367.359L161.396 355.387L155.632 370.462L147.208 391.745L142.774 402.83H141.444L134.793 386.425L129.472 372.679L123.708 357.604L123.264 354.943H122.378L121.934 364.255L120.161 383.764L118.83 403.274H103.755L104.198 398.396L106.859 375.783L109.519 355.387L109.962 354.5L98.8776 357.16L87.7927 360.264L88.2361 354.943L91.3398 338.094L91.7832 336.764L103.755 331.443L109.962 329.226L116.17 328.34L124.151 327.896L124.595 327.009L126.812 304.396L127.698 294.642L118.387 295.528L118.83 289.321L121.047 276.019L121.934 271.585H121.047L120.161 273.359L114.396 281.783L101.538 300.849L98.8776 304.84L112.179 297.745L116.613 295.972H117.944L117.057 303.509L113.51 328.34L112.179 327.009L108.632 319.915L104.198 313.264L98.8776 306.613L97.5474 306.17L95.3304 303.509L87.7927 298.189L81.5851 294.642L79.3681 293.755L76.7078 294.198L67.8398 298.189L62.0757 300.849L49.6606 306.17L37.6889 311.047L30.5945 313.708L25.2738 315.925L19.5096 318.142H18.1794V303.509L22.17 301.736L32.8115 298.189L52.7644 290.651L59.8587 287.991L60.3021 287.104L55.8681 286.66L48.3304 284.887L35.4719 282.67L20.3964 280.453L18.6228 279.566L26.604 273.802L32.8115 269.368L40.3493 264.047L50.5474 256.953L63.8493 248.085L58.9719 248.528L48.7738 250.745L32.8115 253.849L18.6228 256.509L18.1794 256.066V241.877L21.2832 240.991L34.1417 239.66L47.0002 237.887L58.9719 236.557L70.9436 234.783L83.8021 233.009L88.2361 232.123L101.095 224.585L108.189 220.594L112.179 218.377L112.623 217.491L110.406 216.604L101.981 212.17L94.4436 207.736L88.6795 204.189V203.745L94.0002 204.189L113.066 207.292L112.623 200.198L105.085 198.425L89.1228 194.434H87.7927V200.642L88.2361 203.745V217.934H66.0662L65.6228 212.17L65.1794 200.642L60.3021 199.755L27.0474 195.764L19.953 194.877L18.1794 194.434V179.802L22.6134 180.245L47.4436 185.123L62.5191 188.226L63.8493 188.67L62.5191 187.34L55.4247 182.462L45.2266 175.368L36.8021 169.604L31.9247 166.057L24.387 160.736L18.1794 156.302V118.17L21.2832 118.613L37.2455 124.821L55.4247 132.359L58.0851 133.689L55.4247 117.283L53.6511 106.642L50.9908 91.1227L49.6606 82.6981L52.321 83.1415L66.0662 88.4623L63.4059 84.4717L58.0851 78.2642L54.9813 74.2736L48.7738 66.7359L47.0002 64.9623L49.2172 77.8208L49.6606 82.2547L45.67 80.9246L38.1323 78.2642L31.4813 75.6038L18.6228 71.1698L18.1794 70.7264V56.0944L21.2832 56.5378L46.1134 63.6321L42.1228 58.7547L37.6889 53.8774L34.5851 50.3302L29.7077 44.5661L26.604 41.4623L23.5002 37.9151L18.6228 33.0378V32.5944Z" fill="#3C3C3C"/>
<path d="M0.886719 16.1887H281.557V417.462H0.886719V16.1887ZM18.6226 32.5944L21.2829 35.6982L26.1603 40.5755L29.2641 44.1227L33.698 49L36.8018 52.5472L42.1226 58.7548L46.1131 63.6321L24.3867 57.4246L19.9528 56.0944H18.1792V70.7265L22.6131 72.5L32.3679 76.0472L43.8962 80.4812L48.7735 82.2548H49.6603L48.3301 72.0566L46.9999 64.9623L49.2169 67.1793L54.0943 72.9434L58.9716 79.151L64.7358 86.2453L66.066 88.4623L52.3207 83.1416L49.6603 82.6982L52.7641 101.764L55.4245 117.283L58.0848 133.689L49.2169 129.698L39.4622 125.708L19.9528 118.17H18.1792V156.302L26.1603 162.066L31.9245 166.057L39.4622 171.377L54.0943 181.576L61.1886 186.453L63.4056 187.783L63.849 188.67L52.3207 186.009L27.0471 181.132L20.3962 179.802H18.1792V194.434L22.6131 195.321L39.4622 197.094L52.3207 198.868L63.849 200.198L65.1792 200.642L65.6226 212.17L66.066 217.934H88.2358V203.302L87.7924 200.642V194.434L92.6697 195.321L111.736 200.198H112.623L113.066 207.293L93.9999 204.189L88.6792 203.745L90.0094 205.076L101.538 211.726L108.632 215.717L111.736 217.491H112.623L111.292 218.821L101.538 224.142L92.6697 229.462L87.349 232.566L78.0377 233.896L61.1886 236.113L50.9905 237.443L36.3584 239.217L25.2735 240.547L18.6226 241.434L18.1792 241.877V256.066L19.066 256.509L38.132 252.962L48.7735 250.745L61.632 248.085H63.849L51.8773 256.066L32.8113 269.368L26.6037 273.802L18.6226 279.566L20.3962 280.453L35.4716 282.67L50.5471 285.33L58.0848 287.104H60.3018L59.8584 287.991L47.8867 292.425L35.0282 297.302L23.9433 301.293L18.6226 303.066L18.1792 303.509V318.142L20.3962 317.698L30.1509 314.151L35.4716 311.934L45.6697 307.943L50.5471 305.726L59.8584 301.736L67.3962 298.632L71.8301 296.415L77.5943 293.755L80.2547 294.198L85.132 296.859L90.4528 299.962L96.2169 304.396L97.5471 306.17L98.8773 306.613L102.868 311.491L107.302 317.698L111.736 325.679L113.066 328.34H113.509L116.613 306.613L117.943 297.745V295.972L115.283 296.415L107.745 299.962L99.3207 304.84L99.7641 303.509L109.519 288.877L119.274 274.689L121.047 272.472V271.585H121.934L120.604 278.679L118.387 292.425V295.528L127.698 294.642L125.481 318.585L124.594 327.009L124.151 327.896L112.179 328.783L106.415 330.557L99.7641 333.217L91.783 336.764L90.0094 345.632L87.7924 357.604V360.264L103.755 355.83L109.962 354.5L109.075 358.934L105.972 383.321L104.198 398.396L103.755 403.274H118.83L120.16 383.764L121.934 364.255L122.377 354.943H123.264L124.151 358.934L128.585 370.462L133.906 384.208L139.67 398.396L141.887 403.274L142.774 402.83L147.207 391.745L153.858 374.896L159.623 359.821L161.396 355.387L162.726 367.359L164.5 393.519L165.387 403.274H180.462L178.245 383.764L175.141 358.934L172.924 342.528L171.151 329.67H170.264L164.5 345.632L161.84 352.726L159.623 329.67V328.34H171.151L176.472 318.142L181.792 310.604L185.783 306.17L188 308.387L193.321 315.925L207.953 335.434L212.387 341.198L215.491 345.189L215.934 346.519L208.84 343.415L199.085 339.425L193.321 337.208H192.434L194.651 350.509L196.424 359.821L200.415 361.594L214.16 365.585L220.811 367.359L219.924 361.151L217.707 350.066V348.293L222.141 353.613L227.019 359.821L232.34 366.028L235.443 370.019L236.774 371.793L226.132 368.689L223.028 367.802H221.255L221.698 372.679L227.019 401.943L227.462 403.274H242.094L241.651 398.396L238.104 375.34L237.66 373.123L239.877 375.34L243.868 379.774L246.972 383.321L250.962 387.755L254.953 392.632L260.274 397.953L263.377 401.5L265.594 403.274V380.217L262.047 378.887L242.981 373.566L237.66 371.793L234.557 354.057L261.16 363.811L265.594 365.142V341.642L260.717 339.425L251.849 335.877L236.774 329.67L231.009 327.009H230.123L231.453 337.208L233.226 346.962L233.67 353.17L222.141 348.736L217.707 346.962H216.821L216.377 342.972L211.943 321.245L211.057 318.585L218.151 321.689L228.792 326.566H229.679L229.236 321.689L227.019 308.387L225.689 302.623L234.557 306.17L248.745 311.934L260.274 316.368L264.707 318.142H265.594V303.509L261.604 301.736L250.519 297.745L231.453 290.651L224.358 287.991L223.915 287.104L228.349 286.66L238.547 284.443L254.066 281.783L263.821 280.453L265.151 280.009V279.123L257.613 273.802L248.745 267.594L242.538 263.16L233.67 256.953L221.255 248.528H220.368V247.642L253.623 254.293L265.594 256.509V241.434L222.585 236.113L219.038 235.67L218.594 221.481V214.387L219.038 200.642L223.915 199.755L242.094 197.538L257.17 195.764L264.264 194.877L265.594 194.434V179.802L258.943 180.689L245.198 183.349L223.472 187.783L219.924 188.67V187.783L222.141 186.896L228.792 182.462L236.33 177.142L244.755 171.377L250.962 166.943L258.5 161.623L265.151 156.745L265.594 156.302V118.17L262.047 119.057L244.755 125.708L231.896 131.028L226.132 133.245L228.792 117.283L231.896 99.1038L234.557 83.1416L235 82.2548L259.387 73.3868L265.594 71.1699V56.0944L258.057 57.868L238.104 63.6321L242.094 58.7548L246.528 53.8774L250.519 49L257.17 41.9057L262.047 36.5849L265.594 33.0378V32.5944H227.462L225.245 43.2359L223.028 56.0944L221.255 65.8491V68.5095L228.349 66.7359L234.557 64.9623H236.33L231.453 70.7265L227.906 75.1604L222.141 82.2548L218.151 87.1321V88.0189H217.264L219.481 77.3774L220.811 69.8397L220.368 68.5095L213.274 70.7265L196.868 75.6038L199.972 57.868L203.962 33.9246V32.5944H103.755L104.198 37.9151L106.858 60.5283L108.632 73.3868L109.519 80.9246L109.962 81.8114L94.8867 77.8208L87.7924 75.6038L85.5754 63.6321L82.915 47.6699L80.2547 32.5944H18.6226Z" fill="#F8EBCB"/>
<path d="M216.377 89.7925L216.821 90.6793L214.16 104.425L210.613 121.274L207.953 133.689L205.736 143L189.774 150.981L180.906 155.859L177.802 168.717L187.557 163.84L199.972 158.076L213.274 152.311L221.698 148.764L218.151 147.434L210.613 145.217L206.179 143.443V142.557L214.604 138.566L224.802 134.132H225.689L224.359 143.887L223.915 148.321L231.453 150.094L247.859 153.198L264.708 155.859L263.377 157.189L244.755 162.509L223.472 169.16L207.509 174.481L199.085 177.585H197.755L197.311 188.67L196.868 193.547L193.764 194.877L172.038 200.198L171.594 197.981L172.481 189.113L172.925 187.34L160.066 192.66L157.406 193.104L158.736 183.349L159.623 178.472L154.745 179.802H152.528L154.745 175.811L161.84 165.613L167.604 157.632L172.038 150.981L183.123 134.576L188 127.481L194.208 119.057L199.528 111.962L205.736 103.538L210.17 97.7736L215.934 90.2359L216.377 89.7925Z" fill="#F9ECCC"/>
<path d="M96.6606 306.17L97.5474 306.613L91.7832 314.594L85.5757 323.019L81.5851 328.34L74.4908 337.651L70.0568 343.415L67.3964 346.962L63.8493 365.585L61.1889 379.774L58.0851 397.51L56.7549 403.274H42.1228L42.5662 397.51L46.1134 375.34L46.5568 373.123L44.3398 375.34L40.3493 379.774L36.3587 384.651L33.2549 387.755L29.2644 392.632L24.387 397.51L21.2832 401.057L19.0662 403.274H18.1794V341.642L34.5851 334.991L46.1134 330.113L59.4153 324.349L84.6889 312.377L93.1134 307.944L96.6606 306.17Z" fill="#3C3C3C"/>
<path d="M113.066 107.972L113.953 109.745L119.274 146.991L121.491 160.292L121.934 165.17L119.274 164.726L109.519 159.406L104.198 156.302L105.085 161.179L106.859 168.717L111.293 171.377L123.264 177.585L131.689 179.802L134.793 184.236L141 195.321L141.887 197.538H138.34L127.698 193.991L126.812 193.547L127.698 197.094L128.585 204.189L124.595 203.745L113.51 200.641L112.623 200.198L110.849 187.34L99.7644 182.906L86.4625 178.028L86.9059 179.358L87.3493 184.236V193.547L86.4625 193.991L76.7078 191.774L65.6229 189.113L65.1795 188.67L64.7361 180.245V170.491L70.0569 171.821L84.2455 176.698L86.4625 177.585L84.6889 170.491L81.5852 157.632L77.1512 155.415L64.2927 150.094L61.6323 148.764L62.0757 147.877L70.5002 145.66L78.9248 142.557L87.3493 138.123L93.1135 134.132L98.8776 129.255L102.868 124.821L109.076 115.509L113.066 107.972Z" fill="#F9ECCC"/>
<path d="M171.594 236.113L175.142 236.557L196.425 241.877L196.868 242.321L197.755 256.509L197.311 258.283L187.113 254.736L178.245 251.189L173.368 249.415L178.689 270.698L180.462 280.009L177.802 279.123L170.264 274.689L162.727 271.142L168.491 279.123L172.038 284.443L184.896 303.509L185.34 304.84L182.679 303.953L172.038 298.189L166.274 295.972L156.519 294.642L150.755 294.198H128.142V288.877L129.915 271.142L130.359 268.925L134.349 268.038L137.453 267.594H146.764L158.293 269.368L161.84 270.255L159.623 257.396L157.406 244.094V242.764L161.396 244.094L172.481 248.528L171.594 238.33V236.113Z" fill="#F9ECCC"/>
<path d="M125.038 107.972H159.179V114.179L156.519 142.113L155.189 154.972L154.302 165.17L153.859 167.387L148.094 168.274H136.123L130.802 167.83L131.689 178.915L129.472 176.698L122.821 166.943V165.613L130.359 166.943L129.028 155.858L127.255 136.792L125.481 119.943L125.038 114.179V107.972Z" fill="#F9ECCC"/>
<path d="M103.755 32.5944H142.33L141.444 33.0378L141 35.6981L134.793 50.7736L129.915 63.1887L125.038 76.0472L122.821 81.8113L121.491 82.2547L109.962 81.8113L109.076 77.3774L107.302 62.7453L105.972 52.5472L103.755 35.2547V32.5944Z" fill="#3C3C3C"/>
<path d="M0 15.3019H282V418.349H0V15.3019ZM0.886792 16.1887V417.462H281.557V16.1887H0.886792Z" fill="#3C3C3C"/>
<path d="M141.443 33.0378L142.773 33.4812L147.207 44.1227L152.528 57.868L156.075 66.736L161.396 80.9246V82.2548L149.424 82.6982H134.792L122.377 82.2548L126.368 71.1699L133.462 52.9907L140.113 36.585L141.443 33.0378Z" fill="#F9ECCC"/>
<path d="M221.255 367.802L224.358 368.245L235.443 371.349L237.66 371.792L244.755 374.009L265.151 379.774L265.594 380.217V403.274L262.49 400.613L256.283 393.962L251.406 388.642L248.302 385.094L244.311 380.66L240.321 375.783L238.547 373.566L237.66 373.123L241.207 395.292L242.094 401.057V403.274H227.462L225.689 395.292L223.028 379.774L221.255 370.019V367.802Z" fill="#3C3C3C"/>
<path d="M109.519 249.415L111.292 249.859L105.528 272.915L103.755 280.453L95.3302 284.887L85.1321 290.208L78.9246 292.868L79.368 288.434L84.2453 267.151L86.0189 259.17L86.9057 257.84L101.538 252.519L109.519 249.415Z" fill="#F9ECCC"/>
<path d="M124.151 327.896H124.594V333.217L122.821 351.84L121.934 352.726L119.274 345.189L117.5 340.755L113.953 331V329.67H113.066L112.623 335.434L109.962 354.5L98.8774 357.16L87.7925 360.264L88.2359 354.943L91.3397 338.094L91.783 336.764L103.755 331.443L109.962 329.226L116.17 328.34L124.151 327.896Z" fill="#3C3C3C"/>
<path d="M125.481 327.453H141.887L142.33 327.896V353.613L122.377 354.057L109.962 354.5L110.406 347.406L113.066 329.67H113.953L118.83 342.972L121.934 351.84H122.377L124.594 327.896L125.481 327.453Z" fill="#F9ECCC"/>
<path d="M58.5284 148.764H61.1888L63.4057 160.736L64.7359 170.047L61.6322 169.604L37.6888 162.066L20.8397 157.189L19.5095 155.859L35.9152 153.198L46.1133 151.425L58.5284 148.764Z" fill="#F9ECCC"/>
<path d="M205.736 142.557L206.179 143.443L208.84 143.887L213.274 145.66L222.585 148.321L220.811 149.651L206.179 155.858L198.198 159.406L183.123 166.5L178.689 168.717H177.802L178.245 165.613L180.462 155.858L184.01 153.641L201.302 144.773L205.736 142.557Z" fill="#3C3C3C"/>
<path d="M197.755 258.727L200.858 259.17L219.038 265.377L219.924 268.038L222.141 280.01L223.028 287.104L219.038 286.217L202.632 279.123L201.302 275.132L197.755 260.057V258.727Z" fill="#F9ECCC"/>
<path d="M85.5755 242.321H87.349V251.632L86.9057 256.953L86.0189 258.726L66.5094 265.377H64.7358V256.066L65.1792 247.198L71.3868 245.425L82.0283 243.208L85.5755 242.321Z" fill="#F9ECCC"/>
<path d="M195.538 203.745L196.424 204.189V232.123L194.651 231.679L185.34 226.359L175.141 220.594L171.151 218.377L172.924 216.604L181.349 212.17L191.104 206.406L195.538 203.745Z" fill="#F9ECCC"/>
<path d="M171.594 236.113L175.142 236.557L196.425 241.877L196.868 242.321L197.755 256.509L197.311 258.283L187.113 254.736L178.245 251.189L172.925 249.415L171.594 238.774V236.113Z" fill="#F8EBCB"/>
<path d="M154.745 210.396L157.406 211.283L168.934 217.047L170.264 217.491L169.821 218.821L156.962 225.028L155.189 225.915L147.208 225.028H135.679L135.236 224.585V211.283H148.981V217.934H154.302V213.057L154.745 210.396Z" fill="#F9ECCC"/>
<path d="M67.396 89.7925L69.613 92.0095L74.4903 98.217L85.1318 112.406L91.3394 120.83L97.1035 128.811V129.698L94.4432 128.811L73.1601 118.17L71.3866 111.519L67.396 91.5661V89.7925Z" fill="#F9ECCC"/>
<path d="M204.849 293.311H205.736L207.51 300.406L211.057 316.811V317.698L208.84 317.255L198.642 312.377L190.217 307.943L186.67 306.17L187.557 304.396L192.434 300.406L199.528 295.972L204.849 293.311Z" fill="#F9ECCC"/>
<path d="M127.255 231.679H128.585L127.255 241.877L131.689 240.547H133.462V244.981L132.132 256.066L124.594 257.84V254.293L126.368 243.651L126.811 242.764L118.387 246.311L111.293 248.972L110.849 248.085L111.736 242.764L112.623 235.67L127.255 231.679Z" fill="#F9ECCC"/>
<path d="M170.708 107.972L172.038 109.302L175.585 116.396L180.019 123.047L183.566 127.481L185.783 129.698L185.34 131.028L174.255 137.236L167.16 140.34H166.274V136.792L167.604 128.368L169.377 115.953L170.708 107.972Z" fill="#F9ECCC"/>
<path d="M126.368 4.6604H281.557V6.43399H126.368V4.6604Z" fill="#3C3C3C"/>
<path d="M87.7928 193.991L92.6701 194.877L111.736 199.755L112.623 200.198L113.066 207.292L107.302 206.849L94.0003 204.632L88.2362 203.745L87.3494 200.642V194.434L87.7928 193.991Z" fill="#F9ECCC"/>
<path d="M109.962 81.8113H121.49L122.377 82.2547L121.047 87.132L117.943 95.5566L113.953 106.198H113.066L111.292 94.6698L109.962 84.9151V81.8113Z" fill="#F9ECCC"/>
<path d="M217.264 347.849L219.481 349.623L223.915 355.387L227.906 360.264L232.783 366.028L235.887 370.019L236.774 371.793L232.34 370.906L221.255 367.802L219.925 363.811L217.264 350.066V347.849Z" fill="#F9ECCC"/>
<path d="M141.443 239.217L142.774 239.66L150.311 252.519L151.641 254.736L151.198 256.066L145.877 255.179H138.34L132.575 256.066L133.019 253.849L140.113 241.877L141.443 239.217Z" fill="#F9ECCC"/>
<path d="M65.6224 347.406L66.5092 347.849L60.745 355.387L55.8677 361.151L50.9903 367.359L47.4432 371.349H46.9998L47.4432 366.028L49.2167 354.943L49.6601 353.613L58.5281 350.066L65.6224 347.406Z" fill="#F9ECCC"/>
<path d="M161.396 83.1415L162.726 84.0283L168.491 100.434L170.708 106.198V107.528L160.066 108.415L159.179 107.972L160.066 97.3302L161.396 83.1415Z" fill="#F9ECCC"/>
<path d="M222.142 287.547L223.472 287.991L225.689 300.849V301.736L223.029 301.293L208.396 294.642L206.179 293.311L207.953 291.981L215.934 289.321L222.142 287.547Z" fill="#F9ECCC"/>
<path d="M151.642 181.132H152.085L151.642 188.226L150.755 195.764L156.962 193.547L157.406 194.877L156.076 203.302L155.632 204.632L151.198 205.962H149.425L149.868 198.425L150.311 196.208L145.877 197.538H142.33L143.217 194.877L150.755 182.019L151.642 181.132Z" fill="#F8EBCB"/>
<path d="M128.585 210.396H129.472L129.915 213.057V223.255L129.472 225.472L127.255 225.028L113.953 218.377V217.491L128.585 210.396Z" fill="#F9ECCC"/>
<path d="M217.707 189.557H219.038L218.594 200.198L215.49 201.085L199.528 203.302H197.755V202.415L207.509 196.208L214.16 191.774L217.707 189.557Z" fill="#F9ECCC"/>
<path d="M196.425 233.01L198.642 233.896L206.623 238.774L215.934 244.981L217.708 246.755L213.717 246.311L201.746 243.651L196.868 242.321L196.425 241.434L195.981 233.453L196.425 233.01Z" fill="#F9ECCC"/>
<path d="M170.264 200.198H171.594V204.189L171.151 207.292L170.708 207.736L158.292 209.953H155.189V205.519L156.076 204.189L170.264 200.198Z" fill="#F9ECCC"/>
<path d="M268.255 426.774H273.575L275.792 428.104L277.123 429.877V433.425L274.906 435.642L273.132 436.528H269.141L266.481 435.198L264.708 432.538L265.151 429.434L267.368 427.217L268.255 426.774Z" fill="#3C3C3C"/>
<path d="M240.764 426.774H246.085L248.745 428.547L249.632 430.321L249.188 433.868L246.528 436.085L245.198 436.528H241.651L238.104 434.755L237.217 433.425V429.877L239.434 427.217L240.764 426.774Z" fill="#3C3C3C"/>
<path d="M216.377 426.774H222.141L225.245 429.434V433.425L223.472 435.642L221.255 436.528H217.264L214.604 435.198L213.273 433.425L212.83 431.208L214.16 428.104L216.377 426.774Z" fill="#3C3C3C"/>
<path d="M251.406 426.774H254.953L256.726 430.321V431.208H257.613L258.5 428.547L259.83 426.774H262.934L264.708 435.198V436.085H261.16L260.274 432.094L258.057 436.085H256.283L254.066 432.094L253.179 436.085H249.632L251.406 426.774Z" fill="#3C3C3C"/>
<path d="M226.576 426.774H232.783L235.887 428.547L236.774 430.321V432.981L234.557 435.642L233.227 436.085H226.576V426.774Z" fill="#3C3C3C"/>
<path d="M138.783 229.019H145.434L148.981 229.906L148.094 231.679L144.991 234.783L142.33 238.33L140.113 236.113L136.123 231.679L135.236 229.906L138.783 229.019Z" fill="#F9ECCC"/>
<path d="M141.443 197.094H142.774L146.321 201.972L148.981 205.075L147.208 205.962L140.557 206.406L135.236 205.519L136.123 203.745L139.67 199.755L141.443 197.094Z" fill="#F9ECCC"/>
<path d="M156.519 193.547L157.405 193.991L156.075 203.302L155.632 204.632L151.198 205.962H149.424L149.868 198.425L150.755 195.764L156.519 193.547Z" fill="#F9ECCC"/>
<path d="M149.868 229.906L155.188 231.236L156.075 233.896L157.405 241.877L156.075 242.321L150.311 240.104L149.424 233.009V230.349L149.868 229.906Z" fill="#F9ECCC"/>
<path d="M203.962 426.774H207.066V429.877H207.953L208.84 428.104L209.726 426.774H213.717L211.943 429.434L210.613 431.651L213.717 435.642V436.085H209.726L207.953 433.868V432.981H207.066V436.085H203.962V426.774Z" fill="#3C3C3C"/>
<path d="M131.245 256.953H131.689L130.802 268.481L126.811 269.811L122.377 270.255L124.151 267.151L127.698 262.274L130.802 257.396L131.245 256.953Z" fill="#F9ECCC"/>
<path d="M270.472 428.991L272.689 429.434L274.019 431.208L273.132 433.425L272.245 433.868H269.585L268.255 432.538L268.698 429.877L270.472 428.991Z" fill="#F9ECCC"/>
<path d="M218.594 428.991L220.811 429.434L222.142 430.764L221.698 432.981L220.368 433.868L217.264 433.425L216.377 432.538L216.821 429.877L218.594 428.991Z" fill="#F9ECCC"/>
<path d="M242.538 428.991L245.198 429.434L246.085 430.764L245.642 432.981L244.755 433.868H242.094L240.764 432.981L240.321 431.208L242.538 428.991Z" fill="#F9ECCC"/>
<path d="M129.028 226.359L130.802 226.802L134.349 229.462V230.349L128.585 231.679L129.028 226.359Z" fill="#F9ECCC"/>
<path d="M134.349 206.406L135.236 208.179V210.84H131.688L129.915 210.396L130.358 209.066L133.019 207.292L134.349 206.406Z" fill="#F9ECCC"/>
<path d="M229.679 429.434H232.34L233.226 430.321V432.538L231.453 433.868L229.679 433.425V429.434Z" fill="#F9ECCC"/>
<path d="M6.26029 8H4.19929L2.39029 5.219V8H0.653293V1.7H2.39029V4.364L4.05529 1.7H6.07129L4.05529 4.76L6.26029 8ZM9.59711 3.005C10.7221 3.005 11.4691 3.806 11.4691 5.039V8H9.79511V5.273C9.79511 4.706 9.57911 4.427 9.15611 4.427C8.63411 4.427 8.33711 4.787 8.33711 5.408V8H6.66311V3.14H7.84211L8.06711 3.644C8.42711 3.239 8.96711 3.005 9.59711 3.005ZM14.9029 8.162C13.3189 8.162 12.1849 7.073 12.1849 5.57C12.1849 4.067 13.3189 2.987 14.9029 2.987C16.4869 2.987 17.6299 4.067 17.6299 5.57C17.6299 7.073 16.4869 8.162 14.9029 8.162ZM14.9029 6.659C15.5149 6.659 15.9559 6.218 15.9559 5.579C15.9559 4.94 15.5149 4.49 14.9029 4.49C14.2999 4.49 13.8589 4.931 13.8589 5.579C13.8589 6.218 14.2999 6.659 14.9029 6.659ZM23.7817 3.14H25.4917L23.9437 8H22.5937L21.6397 5.831L20.6947 8H19.3447L17.7607 3.14H19.5157L20.2447 5.696L21.3967 3.158H21.8467L23.0617 5.723L23.7817 3.14ZM26.0694 8V1.385H27.7434V8H26.0694ZM33.798 5.525C33.798 5.678 33.789 5.822 33.771 5.975H30.162C30.27 6.533 30.621 6.821 31.152 6.821C31.539 6.821 31.872 6.65 32.025 6.362H33.699C33.357 7.469 32.367 8.162 31.152 8.162C29.631 8.162 28.515 7.055 28.515 5.57C28.515 4.085 29.622 2.987 31.152 2.987C32.718 2.987 33.798 4.103 33.798 5.525ZM31.152 4.301C30.666 4.301 30.324 4.562 30.189 5.048H32.151C32.007 4.562 31.656 4.301 31.152 4.301ZM38.0336 1.385H39.6896V8H38.4566L38.2946 7.64C37.8986 7.973 37.3946 8.171 36.8276 8.171C35.3426 8.171 34.2806 7.082 34.2806 5.57C34.2806 4.067 35.3426 2.987 36.8276 2.987C37.2776 2.987 37.6916 3.104 38.0336 3.32V1.385ZM37.0526 6.686C37.6826 6.686 38.1416 6.209 38.1416 5.579C38.1416 4.94 37.6826 4.463 37.0526 4.463C36.4316 4.463 35.9636 4.94 35.9636 5.579C35.9636 6.209 36.4316 6.686 37.0526 6.686ZM44.6353 3.14L45.7603 3.149V7.469C45.7603 8.99 44.7613 9.935 43.1593 9.935C41.7823 9.935 40.8193 9.242 40.5943 8.09H42.2053C42.3223 8.414 42.7363 8.594 43.1413 8.594C43.7083 8.594 44.1583 8.234 44.1583 7.658V7.514C43.7893 7.739 43.3573 7.874 42.8893 7.874C41.4943 7.874 40.4593 6.839 40.4593 5.435C40.4593 4.049 41.4943 2.987 42.8893 2.987C43.4743 2.987 44.0053 3.203 44.4193 3.554L44.6353 3.14ZM43.1683 6.497C43.7713 6.497 44.2033 6.056 44.2033 5.435C44.2033 4.823 43.7713 4.373 43.1683 4.373C42.5653 4.373 42.1243 4.823 42.1243 5.435C42.1243 6.056 42.5563 6.497 43.1683 6.497ZM51.8243 5.525C51.8243 5.678 51.8153 5.822 51.7973 5.975H48.1883C48.2963 6.533 48.6473 6.821 49.1783 6.821C49.5653 6.821 49.8983 6.65 50.0513 6.362H51.7253C51.3833 7.469 50.3933 8.162 49.1783 8.162C47.6573 8.162 46.5413 7.055 46.5413 5.57C46.5413 4.085 47.6483 2.987 49.1783 2.987C50.7443 2.987 51.8243 4.103 51.8243 5.525ZM49.1783 4.301C48.6923 4.301 48.3503 4.562 48.2153 5.048H50.1773C50.0333 4.562 49.6823 4.301 49.1783 4.301ZM57.1651 1.7C59.0731 1.7 60.4231 3.005 60.4231 4.85C60.4231 6.686 59.0731 8 57.1651 8H54.6181V1.7H57.1651ZM57.0841 6.416C58.0201 6.416 58.6411 5.777 58.6411 4.85C58.6411 3.914 58.0201 3.293 57.0841 3.293H56.3641V6.416H57.0841ZM63.9348 3.122H64.3848V4.652H63.7278C63.1428 4.652 62.8908 4.913 62.8908 5.534V8H61.2168V3.14H62.3418L62.6028 3.68C62.9448 3.284 63.3588 3.122 63.9348 3.122ZM65.0227 2.537V1.115H66.6787V2.537H65.0227ZM65.0137 8V3.14H66.6877V8H65.0137ZM70.8793 3.14H72.6613L70.7083 8H69.1963L67.2163 3.14H69.0523L69.9703 6.02L70.8793 3.14ZM77.9894 5.525C77.9894 5.678 77.9804 5.822 77.9624 5.975H74.3534C74.4614 6.533 74.8124 6.821 75.3434 6.821C75.7304 6.821 76.0634 6.65 76.2164 6.362H77.8904C77.5484 7.469 76.5584 8.162 75.3434 8.162C73.8224 8.162 72.7064 7.055 72.7064 5.57C72.7064 4.085 73.8134 2.987 75.3434 2.987C76.9094 2.987 77.9894 4.103 77.9894 5.525ZM75.3434 4.301C74.8574 4.301 74.5154 4.562 74.3804 5.048H76.3424C76.1984 4.562 75.8474 4.301 75.3434 4.301ZM80.623 8.162C79.3 8.162 78.499 7.46 78.481 6.407H80.092C80.092 6.767 80.344 6.929 80.659 6.929C80.902 6.929 81.136 6.803 81.136 6.551C81.136 6.272 80.767 6.191 80.299 6.119C79.543 5.993 78.544 5.768 78.544 4.589C78.544 3.617 79.381 2.987 80.623 2.987C81.856 2.987 82.666 3.644 82.684 4.625H81.109C81.109 4.319 80.902 4.175 80.605 4.175C80.335 4.175 80.155 4.31 80.155 4.535C80.155 4.805 80.524 4.877 80.983 4.958C81.757 5.093 82.774 5.255 82.774 6.479C82.774 7.496 81.919 8.162 80.623 8.162ZM93.5738 8H91.8188L91.3328 4.373L89.6588 8.018H89.1458L87.4808 4.382L86.9948 8H85.2308L86.1848 1.7H87.9218L89.4068 5.129L90.9008 1.7H92.6288L93.5738 8ZM98.2141 3.14H99.4651V8H98.1691L98.0251 7.658C97.6291 7.982 97.1251 8.162 96.5581 8.162C95.0731 8.162 94.0111 7.082 94.0111 5.57C94.0111 4.067 95.0731 2.996 96.5581 2.996C97.1341 2.996 97.6471 3.185 98.0431 3.518L98.2141 3.14ZM96.7831 6.686C97.4131 6.686 97.8721 6.209 97.8721 5.57C97.8721 4.94 97.4131 4.472 96.7831 4.472C96.1531 4.472 95.6941 4.94 95.6941 5.57C95.6941 6.209 96.1531 6.686 96.7831 6.686ZM102.394 8.162C101.071 8.162 100.27 7.46 100.252 6.407H101.863C101.863 6.767 102.115 6.929 102.43 6.929C102.673 6.929 102.907 6.803 102.907 6.551C102.907 6.272 102.538 6.191 102.07 6.119C101.314 5.993 100.315 5.768 100.315 4.589C100.315 3.617 101.152 2.987 102.394 2.987C103.627 2.987 104.437 3.644 104.455 4.625H102.88C102.88 4.319 102.673 4.175 102.376 4.175C102.106 4.175 101.926 4.31 101.926 4.535C101.926 4.805 102.295 4.877 102.754 4.958C103.528 5.093 104.545 5.255 104.545 6.479C104.545 7.496 103.69 8.162 102.394 8.162ZM107.922 6.542H108.561V8H107.409C106.338 8 105.681 7.343 105.681 6.263V4.436H104.79V4.04L106.968 1.727H107.319V3.14H108.534V4.436H107.355V5.984C107.355 6.326 107.571 6.542 107.922 6.542ZM114.306 5.525C114.306 5.678 114.297 5.822 114.279 5.975H110.67C110.778 6.533 111.129 6.821 111.66 6.821C112.047 6.821 112.38 6.65 112.533 6.362H114.207C113.865 7.469 112.875 8.162 111.66 8.162C110.139 8.162 109.023 7.055 109.023 5.57C109.023 4.085 110.13 2.987 111.66 2.987C113.226 2.987 114.306 4.103 114.306 5.525ZM111.66 4.301C111.174 4.301 110.832 4.562 110.697 5.048H112.659C112.515 4.562 112.164 4.301 111.66 4.301ZM117.785 3.122H118.235V4.652H117.578C116.993 4.652 116.741 4.913 116.741 5.534V8H115.067V3.14H116.192L116.453 3.68C116.795 3.284 117.209 3.122 117.785 3.122ZM122.176 3.14H123.976L121.933 7.784C121.276 9.278 120.682 9.809 119.422 9.809H118.846V8.378H119.314C119.953 8.378 120.142 8.207 120.367 7.604L118.36 3.14H120.178L121.213 5.822L122.176 3.14Z" fill="#3C3C3C"/>
</svg>
