<svg width="31" height="32" viewBox="0 0 31 32" fill="none" xmlns="http://www.w3.org/2000/svg">
<g filter="url(#filter0_d_281_116)">
<circle cx="16" cy="15" r="14" fill="#7AE651"/>
<circle cx="16" cy="15" r="14" stroke="black" stroke-width="1.5"/>
</g>
<path d="M15.14 10H13.766L12.56 8.146V10H11.402V5.8H12.56V7.576L13.67 5.8H15.014L13.67 7.84L15.14 10ZM17.3046 10.108C15.9546 10.108 14.9946 9.184 14.9946 7.906C14.9946 6.622 15.9546 5.698 17.3046 5.698C18.6546 5.698 19.6146 6.616 19.6146 7.906C19.6146 9.19 18.6546 10.108 17.3046 10.108ZM17.3046 9.034C17.9466 9.034 18.4086 8.56 18.4086 7.906C18.4086 7.246 17.9466 6.772 17.3046 6.772C16.6686 6.772 16.1946 7.252 16.1946 7.906C16.1946 8.554 16.6686 9.034 17.3046 9.034ZM13.1 13.8C14.372 13.8 15.272 14.67 15.272 15.9C15.272 17.124 14.372 18 13.1 18H11.402V13.8H13.1ZM13.046 16.944C13.67 16.944 14.084 16.518 14.084 15.9C14.084 15.276 13.67 14.862 13.046 14.862H12.566V16.944H13.046ZM17.9667 18.108C16.6167 18.108 15.6567 17.184 15.6567 15.906C15.6567 14.622 16.6167 13.698 17.9667 13.698C19.3167 13.698 20.2767 14.616 20.2767 15.906C20.2767 17.19 19.3167 18.108 17.9667 18.108ZM17.9667 17.034C18.6087 17.034 19.0707 16.56 19.0707 15.906C19.0707 15.246 18.6087 14.772 17.9667 14.772C17.3307 14.772 16.8567 15.252 16.8567 15.906C16.8567 16.554 17.3307 17.034 17.9667 17.034ZM15.77 24H14.795L14.525 21.985L13.595 24.01H13.31L12.385 21.99L12.115 24H11.135L11.665 20.5H12.63L13.455 22.405L14.285 20.5H15.245L15.77 24ZM17.9579 24.09C16.8329 24.09 16.0329 23.32 16.0329 22.255C16.0329 21.185 16.8329 20.415 17.9579 20.415C19.0829 20.415 19.8829 21.18 19.8829 22.255C19.8829 23.325 19.0829 24.09 17.9579 24.09ZM17.9579 23.195C18.4929 23.195 18.8779 22.8 18.8779 22.255C18.8779 21.705 18.4929 21.31 17.9579 21.31C17.4279 21.31 17.0329 21.71 17.0329 22.255C17.0329 22.795 17.4279 23.195 17.9579 23.195Z" fill="black"/>
<defs>
<filter id="filter0_d_281_116" x="0.25" y="0.25" width="30.5" height="31.5" filterUnits="userSpaceOnUse" color-interpolation-filters="sRGB">
<feFlood flood-opacity="0" result="BackgroundImageFix"/>
<feColorMatrix in="SourceAlpha" type="matrix" values="0 0 0 0 0 0 0 0 0 0 0 0 0 0 0 0 0 0 127 0" result="hardAlpha"/>
<feOffset dx="-1" dy="2"/>
<feComposite in2="hardAlpha" operator="out"/>
<feColorMatrix type="matrix" values="0 0 0 0 0 0 0 0 0 0 0 0 0 0 0 0 0 0 1 0"/>
<feBlend mode="normal" in2="BackgroundImageFix" result="effect1_dropShadow_281_116"/>
<feBlend mode="normal" in="SourceGraphic" in2="effect1_dropShadow_281_116" result="shape"/>
</filter>
</defs>
</svg>
