<svg width="19" height="19" viewBox="0 0 19 19" fill="none" xmlns="http://www.w3.org/2000/svg">
<g clip-path="url(#clip0_281_123)">
<path d="M18.4841 0.207729C18.8589 0.467495 19.0556 0.916518 18.9851 1.36554L16.6101 16.803C16.5544 17.163 16.3354 17.4784 16.0163 17.6566C15.6972 17.8347 15.3149 17.8569 14.9772 17.7159L10.539 15.8716L7.99697 18.6214C7.6667 18.9814 7.14716 19.1001 6.69072 18.922C6.23427 18.7439 5.9374 18.3023 5.9374 17.8124V14.7101C5.9374 14.5616 5.99306 14.4206 6.09326 14.313L12.3128 7.5257C12.528 7.29191 12.5206 6.93195 12.2979 6.70929C12.0753 6.48664 11.7153 6.47179 11.4815 6.68332L3.93349 13.389L0.656734 11.7487C0.263375 11.5521 0.011031 11.1587 -0.000101767 10.7208C-0.0112346 10.2829 0.218844 9.87472 0.597359 9.65578L17.2224 0.155776C17.6194 -0.070591 18.1093 -0.0483254 18.4841 0.207729Z" fill="black"/>
</g>
<defs>
<clipPath id="clip0_281_123">
<rect width="19" height="19" fill="white"/>
</clipPath>
</defs>
</svg>
