<svg width="34" height="34" viewBox="0 0 34 34" fill="none" xmlns="http://www.w3.org/2000/svg">
<rect x="2" y="2" width="32" height="32" rx="5" fill="black"/>
<rect x="0.5" y="0.5" width="31" height="31" rx="4.5" fill="#E582BE" stroke="black"/>
<path d="M18.725 22.7436L18.725 22.7436C18.5867 22.8754 18.4029 22.949 18.2118 22.949C18.0207 22.949 17.837 22.8754 17.6986 22.7436L18.725 22.7436ZM18.725 22.7436L18.7276 22.7411L18.7334 22.7352C18.8012 22.6705 18.8552 22.5927 18.8922 22.5065C18.9294 22.4197 18.9486 22.3263 18.9486 22.2318C18.9486 22.1374 18.9294 22.0439 18.8922 21.9572C18.8549 21.8704 18.8004 21.7921 18.7319 21.7271L12.6141 15.8983L18.7319 10.0719L18.725 22.7436ZM11.0807 15.361C11.0807 15.361 11.0807 15.361 11.0807 15.361C11.0078 15.4305 10.9498 15.514 10.9101 15.6066C10.8704 15.6991 10.85 15.7988 10.85 15.8995C10.85 16.0002 10.8704 16.0998 10.9101 16.1924C10.9498 16.285 11.0078 16.3685 11.0807 16.438C11.0807 16.438 11.0807 16.438 11.0807 16.438L17.6986 22.7436L11.1842 15.4696L11.0807 15.361ZM11.0807 15.361L17.6986 9.05542L11.0807 15.361ZM18.2118 8.85C18.0207 8.85 17.837 8.92355 17.6986 9.05539L18.7321 10.0718C18.8005 10.0068 18.8549 9.92854 18.8922 9.84181C18.9294 9.75504 18.9486 9.66159 18.9486 9.56715C18.9486 9.47271 18.9294 9.37926 18.8922 9.29248C18.8552 9.20634 18.8012 9.12856 18.7334 9.06379L18.7276 9.05793L18.7276 9.0579L18.725 9.05542C18.5867 8.92356 18.4029 8.85 18.2118 8.85Z" fill="black" stroke="black" stroke-width="0.3"/>
</svg>
