<svg width="27" height="24" viewBox="0 0 27 24" fill="none" xmlns="http://www.w3.org/2000/svg">
<path d="M26.9929 11.9766C26.9929 12.8203 26.2897 13.4813 25.4928 13.4813H23.9927L24.0255 20.9906C24.0255 21.1172 24.0161 21.2437 24.002 21.3703V22.125C24.002 23.1609 23.1629 24 22.1269 24H21.3768C21.3253 24 21.2737 24 21.2221 23.9953C21.1565 24 21.0909 24 21.0252 24H19.5017H18.3766C17.3405 24 16.5014 23.1609 16.5014 22.125V21V18C16.5014 17.1703 15.831 16.5 15.0013 16.5H12.001C11.1713 16.5 10.5009 17.1703 10.5009 18V21V22.125C10.5009 23.1609 9.66176 24 8.62573 24H7.50064H6.0052C5.93488 24 5.86456 23.9953 5.79424 23.9906C5.73799 23.9953 5.68173 24 5.62548 24H4.87541C3.83939 24 3.00026 23.1609 3.00026 22.125V16.875C3.00026 16.8328 3.00026 16.7859 3.00494 16.7438V13.4813H1.50013C0.656306 13.4813 0 12.825 0 11.9766C0 11.5547 0.140637 11.1797 0.46879 10.8516L12.4886 0.375C12.8167 0.046875 13.1917 0 13.5199 0C13.8481 0 14.2231 0.09375 14.5044 0.328125L26.4773 10.8516C26.8523 11.1797 27.0398 11.5547 26.9929 11.9766Z" fill="black"/>
</svg>
