<svg width="27" height="28" viewBox="0 0 27 28" fill="none" xmlns="http://www.w3.org/2000/svg">
<rect x="2" y="2.57178" width="25" height="25" rx="5" fill="black"/>
<rect x="0.5" y="1.07178" width="24" height="24" rx="4.5" fill="white" stroke="black"/>
<path d="M11.0126 8.96746L11.0127 8.96749C11.1119 8.87415 11.2434 8.82241 11.3797 8.82241C11.5161 8.82241 11.6475 8.87414 11.7468 8.96746L11.0126 8.96746ZM11.0126 8.96746L11.0101 8.96997L11.0067 8.97327L11.0126 8.96746ZM11.0083 17.0312C10.9588 17.0776 10.9192 17.1335 10.8922 17.1957C10.8651 17.2578 10.8511 17.3249 10.8511 17.3927C10.8511 17.4605 10.8651 17.5275 10.8922 17.5897C10.919 17.6512 10.9579 17.7066 11.0067 17.7527L11.0101 17.756L11.0101 17.7561L11.0127 17.7585C11.1119 17.8518 11.2434 17.9036 11.3797 17.9036C11.5161 17.9036 11.6475 17.8518 11.7468 17.7585C11.7468 17.7585 11.7468 17.7585 11.7468 17.7585L16.0166 13.7459L11.0297 9.19619C11.0109 9.23952 11.0011 9.28617 11.0011 9.33332C11.0011 9.38047 11.0109 9.42713 11.0297 9.47045C11.0486 9.51378 11.0762 9.55287 11.1108 9.58534L11.0081 9.69465L11.0082 9.69477C11.0082 9.69478 11.0083 9.69479 11.0083 9.6948L14.9126 13.3637L11.0083 17.0312ZM11.0083 17.0312L11.1108 17.1406M11.0083 17.0312L11.0081 17.0313L11.1108 17.1406M11.1108 17.1406C11.0762 17.1731 11.0486 17.2122 11.0297 17.2555C11.0109 17.2989 11.0011 17.3455 11.0011 17.3927C11.0011 17.4398 11.0109 17.4865 11.0297 17.5298C11.0486 17.5731 11.0762 17.6122 11.1108 17.6447V17.1406ZM16.0166 12.9801L11.7468 8.96749L16.0166 13.7459C16.0689 13.6967 16.1107 13.6374 16.1393 13.5716C16.1679 13.5057 16.1827 13.4348 16.1827 13.363C16.1827 13.2912 16.1679 13.2203 16.1393 13.1544C16.1107 13.0886 16.0689 13.0293 16.0166 12.9801Z" fill="black" stroke="black" stroke-width="0.3"/>
</svg>
