<svg width="24" height="27" viewBox="0 0 24 27" fill="none" xmlns="http://www.w3.org/2000/svg">
<path d="M11.5 13C13.2429 13 14.9143 12.3152 16.1467 11.0962C17.3791 9.87721 18.0714 8.22391 18.0714 6.5C18.0714 4.77609 17.3791 3.12279 16.1467 1.90381C14.9143 0.68482 13.2429 0 11.5 0C9.75715 0 8.08568 0.68482 6.8533 1.90381C5.62092 3.12279 4.92857 4.77609 4.92857 6.5C4.92857 8.22391 5.62092 9.87721 6.8533 11.0962C8.08568 12.3152 9.75715 13 11.5 13ZM9.1538 15.4375C4.09688 15.4375 0 19.4898 0 24.4918C0 25.3246 0.682813 26 1.52478 26H21.4752C22.3172 26 23 25.3246 23 24.4918C23 19.4898 18.9031 15.4375 13.8462 15.4375H9.1538Z" fill="black"/>
</svg>
