<svg width="35" height="35" viewBox="0 0 35 35" fill="none" xmlns="http://www.w3.org/2000/svg">
<circle cx="18.3975" cy="18.3974" r="16.6026" fill="black"/>
<circle cx="16.6026" cy="16.6026" r="15.8526" fill="#E582BE" stroke="black" stroke-width="1.5"/>
<path d="M20.1286 25C19.9028 25 19.6862 24.9104 19.5265 24.7508C19.3667 24.5913 19.277 24.3749 19.277 24.1493V21.9374C19.3035 21.6829 19.2762 21.4258 19.197 21.1825C19.1178 20.9393 18.9884 20.7153 18.8171 20.5252C18.7111 20.4103 18.6388 20.2685 18.6081 20.1153C18.5775 19.962 18.5896 19.8033 18.6433 19.6566C18.697 19.5098 18.7901 19.3807 18.9124 19.2833C19.0347 19.1859 19.1814 19.124 19.3366 19.1044C21.4146 18.8577 23.3308 18.1942 23.3308 14.5956C23.3314 13.9235 23.1329 13.2664 22.7602 12.7069C22.4163 12.1919 22.2907 11.5617 22.411 10.9544C22.4878 10.5583 22.4878 10.1511 22.411 9.7549C21.7733 9.97028 21.1729 10.2831 20.6311 10.6822C20.5287 10.7549 20.4114 10.804 20.2877 10.826C20.1641 10.8481 20.037 10.8426 19.9157 10.8098C18.3788 10.376 16.7517 10.376 15.2147 10.8098C15.0935 10.8426 14.9664 10.8481 14.8428 10.826C14.7191 10.804 14.6018 10.7549 14.4994 10.6822C13.9543 10.2785 13.3475 9.96534 12.7024 9.7549C12.6215 10.1507 12.6215 10.5587 12.7024 10.9544C12.8141 11.5694 12.6828 12.2036 12.3362 12.724C11.9652 13.2873 11.7668 13.9467 11.7656 14.6211C11.7656 17.9304 13.3667 18.8152 15.7683 19.1214C15.9255 19.1409 16.0741 19.2038 16.1974 19.303C16.3208 19.4022 16.414 19.5337 16.4666 19.6829C16.5162 19.8277 16.5257 19.9831 16.4942 20.1328C16.4627 20.2826 16.3914 20.421 16.2878 20.5337C16.1222 20.7105 15.995 20.9198 15.9144 21.1482C15.8338 21.3766 15.8014 21.6193 15.8194 21.8608V24.1493C15.8194 24.3749 15.7297 24.5913 15.57 24.7508C15.4103 24.9104 15.1936 25 14.9678 25C14.7419 25 14.5253 24.9104 14.3656 24.7508C14.2059 24.5913 14.1161 24.3749 14.1161 24.1493V23.6644C13.2793 23.7605 12.4316 23.6485 11.6486 23.3383C10.8656 23.0281 10.1715 22.5293 9.62806 21.8863C9.34873 21.577 9.01359 21.3231 8.64017 21.1377C8.53169 21.1097 8.42977 21.0608 8.34025 20.9935C8.25072 20.9262 8.17534 20.842 8.1184 20.7456C8.06146 20.6492 8.02408 20.5426 8.0084 20.4318C7.99272 20.321 7.99904 20.2082 8.027 20.0998C8.05495 19.9914 8.10401 19.8896 8.17135 19.8002C8.2387 19.7108 8.32302 19.6354 8.4195 19.5786C8.51598 19.5217 8.62272 19.4844 8.73365 19.4687C8.84457 19.453 8.9575 19.4593 9.06598 19.4873C9.7211 19.7257 10.3065 20.1233 10.7692 20.6443C11.6209 21.495 12.4725 22.2436 14.0906 21.9374C14.0621 21.4806 14.1288 21.0229 14.2865 20.5932C12.5321 20.1508 10.0283 18.8918 10.0283 14.6381C10.0261 13.6305 10.3224 12.6448 10.88 11.8052C10.9835 11.6502 11.0232 11.4612 10.9907 11.2777C10.8186 10.3594 10.9162 9.41098 11.2717 8.54686C11.32 8.43164 11.3931 8.32846 11.4859 8.24465C11.5786 8.16085 11.6886 8.09847 11.8082 8.06194C12.0978 7.97687 13.1368 7.80672 15.104 9.08282C16.6966 8.7 18.3573 8.7 19.9498 9.08282C21.9171 7.80672 22.9561 7.96836 23.2371 8.06194C23.3567 8.09847 23.4667 8.16085 23.5595 8.24465C23.6522 8.32846 23.7253 8.43164 23.7736 8.54686C24.1298 9.41378 24.2274 10.3651 24.0547 11.2862C24.0372 11.3692 24.0365 11.4548 24.0526 11.5381C24.0687 11.6214 24.1012 11.7006 24.1483 11.7711C24.7075 12.6132 25.0039 13.6021 25 14.6126C25 18.9258 22.5132 20.1764 20.7418 20.5677C20.8979 21.0242 20.9615 21.5071 20.9292 21.9884V24.1493C20.9296 24.3663 20.8469 24.5753 20.6981 24.7335C20.5492 24.8916 20.3455 24.987 20.1286 25Z" fill="black"/>
</svg>
