<svg width="35" height="35" viewBox="0 0 35 35" fill="none" xmlns="http://www.w3.org/2000/svg">
<circle cx="18.3975" cy="18.3974" r="16.6026" fill="black"/>
<circle cx="16.6026" cy="16.6026" r="15.8526" fill="#E582BE" stroke="black" stroke-width="1.5"/>
<path fill-rule="evenodd" clip-rule="evenodd" d="M8 16.75C8 11.9182 11.9182 8 16.75 8C18.9632 7.99947 21.0936 8.84107 22.709 10.354C22.7752 10.4157 22.8283 10.4901 22.865 10.5728C22.9018 10.6554 22.9216 10.7447 22.9231 10.8352C22.9246 10.9256 22.9078 11.0155 22.8738 11.0993C22.8398 11.1832 22.7892 11.2593 22.7251 11.3232L20.4412 13.6072C20.3197 13.7286 20.1565 13.7991 19.9848 13.8041C19.8131 13.8091 19.646 13.7483 19.5177 13.6341C18.7568 12.9529 17.7713 12.5765 16.75 12.5769C15.6432 12.5769 14.5818 13.0166 13.7992 13.7992C13.0166 14.5818 12.5769 15.6432 12.5769 16.75C12.5769 17.8568 13.0166 18.9182 13.7992 19.7008C14.5818 20.4834 15.6432 20.9231 16.75 20.9231C17.4417 20.9233 18.1226 20.7511 18.731 20.4221C19.3395 20.093 19.8563 19.6175 20.2347 19.0385H16.75C16.5715 19.0385 16.4003 18.9675 16.2741 18.8413C16.1478 18.7151 16.0769 18.5439 16.0769 18.3654V15.1346C16.0769 14.9561 16.1478 14.7849 16.2741 14.6587C16.4003 14.5325 16.5715 14.4615 16.75 14.4615H24.6699C24.8257 14.4615 24.9767 14.5155 25.0972 14.6143C25.2176 14.7132 25.3001 14.8507 25.3304 15.0036C25.4427 15.579 25.4995 16.1638 25.5 16.75C25.5 21.5818 21.5818 25.5 16.75 25.5C11.9182 25.5 8 21.5818 8 16.75ZM16.75 9.34615C15.2455 9.34654 13.7768 9.80527 12.5395 10.6613C11.3022 11.5172 10.3551 12.7299 9.82422 14.1376C9.29336 15.5454 9.20399 17.0815 9.56799 18.5413C9.93199 20.0011 10.7321 21.3154 11.8618 22.3091C12.9914 23.3028 14.397 23.9288 15.8913 24.1037C17.3857 24.2785 18.8978 23.994 20.2264 23.288C21.5549 22.5819 22.6369 21.4879 23.3281 20.1515C24.0193 18.8152 24.287 17.3 24.0955 15.8077H17.4231V17.6923H21.3144C21.422 17.6923 21.5281 17.7182 21.6237 17.7677C21.7194 17.8172 21.8017 17.8889 21.8639 17.9768C21.926 18.0647 21.9662 18.1663 21.981 18.2729C21.9957 18.3796 21.9847 18.4882 21.9488 18.5897C21.5144 19.816 20.6605 20.8493 19.5381 21.5072C18.4158 22.165 17.097 22.4051 15.8148 22.185C14.5326 21.9649 13.3694 21.2988 12.5306 20.3043C11.6918 19.3098 11.2315 18.051 11.2308 16.75C11.2308 15.2862 11.8123 13.8824 12.8473 12.8473C13.8824 11.8123 15.2862 11.2308 16.75 11.2308C17.9283 11.2308 19.0178 11.6032 19.9126 12.2323L21.2578 10.8862C19.9679 9.88644 18.3819 9.34462 16.75 9.34615Z" fill="black"/>
</svg>
