<svg width="163" height="31" viewBox="0 0 163 31" fill="none" xmlns="http://www.w3.org/2000/svg">
<path d="M26.3303 17.024H30.6503C30.7356 17.7493 31.0663 18.4107 31.6423 19.008C32.2396 19.584 33.0183 20.0427 33.9783 20.384C34.9383 20.704 36.0156 20.864 37.2103 20.864C38.2983 20.864 39.1943 20.7467 39.8983 20.512C40.6023 20.2773 41.1249 19.9467 41.4663 19.52C41.8076 19.0933 41.9783 18.5813 41.9783 17.984C41.9783 17.408 41.7649 16.9707 41.3383 16.672C40.9116 16.352 40.2396 16.096 39.3223 15.904C38.4049 15.6907 37.1996 15.4773 35.7063 15.264C34.5329 15.0933 33.4236 14.8587 32.3783 14.56C31.3329 14.24 30.4049 13.8347 29.5943 13.344C28.8049 12.8533 28.1756 12.256 27.7063 11.552C27.2583 10.8267 27.0343 9.97333 27.0343 8.992C27.0343 7.776 27.3756 6.70933 28.0583 5.792C28.7623 4.87467 29.7969 4.16 31.1623 3.648C32.5276 3.136 34.2023 2.88 36.1863 2.88C39.1729 2.88 41.4663 3.52 43.0663 4.8C44.6876 6.05867 45.4769 7.79733 45.4343 10.016H41.2743C41.1889 8.75733 40.6556 7.85067 39.6743 7.296C38.7143 6.74133 37.4983 6.464 36.0263 6.464C34.6609 6.464 33.5303 6.66667 32.6343 7.072C31.7596 7.47733 31.3223 8.17067 31.3223 9.152C31.3223 9.536 31.4289 9.87733 31.6423 10.176C31.8556 10.4533 32.2183 10.6987 32.7303 10.912C33.2423 11.1253 33.9356 11.328 34.8103 11.52C35.6849 11.712 36.7729 11.904 38.0743 12.096C39.2903 12.2667 40.3889 12.5013 41.3703 12.8C42.3729 13.0773 43.2263 13.4507 43.9303 13.92C44.6556 14.368 45.2103 14.944 45.5943 15.648C45.9783 16.352 46.1703 17.216 46.1703 18.24C46.1703 19.4987 45.8396 20.5973 45.1783 21.536C44.5383 22.4533 43.5356 23.168 42.1703 23.68C40.8263 24.192 39.0769 24.448 36.9223 24.448C35.3863 24.448 34.0316 24.288 32.8583 23.968C31.6849 23.6267 30.6716 23.1787 29.8183 22.624C28.9649 22.0693 28.2716 21.4613 27.7383 20.8C27.2049 20.1387 26.8209 19.4773 26.5863 18.816C26.3729 18.1547 26.2876 17.5573 26.3303 17.024ZM54.149 1.12V4.768H49.317V1.12H54.149ZM49.637 8.096H53.797V24H49.637V8.096ZM65.8795 21.568C64.1515 21.568 62.6262 21.312 61.3035 20.8C60.0022 20.2667 58.9889 19.488 58.2635 18.464C57.5382 17.44 57.1755 16.2027 57.1755 14.752C57.1755 13.3227 57.5275 12.0853 58.2315 11.04C58.9355 9.99467 59.9382 9.184 61.2395 8.608C62.5622 8.032 64.1089 7.744 65.8795 7.744C66.3702 7.744 66.8395 7.776 67.2875 7.84C67.7569 7.904 68.2155 7.98933 68.6635 8.096L76.6955 8.128V11.264C75.6075 11.2853 74.4982 11.1573 73.3675 10.88C72.2582 10.5813 71.2769 10.2613 70.4235 9.92L70.3275 9.696C71.0529 10.0373 71.7355 10.464 72.3755 10.976C73.0155 11.4667 73.5275 12.0427 73.9115 12.704C74.3169 13.344 74.5195 14.0907 74.5195 14.944C74.5195 16.3307 74.1675 17.5253 73.4635 18.528C72.7595 19.5093 71.7569 20.2667 70.4555 20.8C69.1755 21.312 67.6502 21.568 65.8795 21.568ZM71.2235 30.56V29.792C71.2235 28.8107 70.9035 28.128 70.2635 27.744C69.6449 27.36 68.7915 27.168 67.7035 27.168H62.7435C61.7835 27.168 60.9729 27.0933 60.3115 26.944C59.6715 26.7947 59.1595 26.5813 58.7755 26.304C58.3915 26.0267 58.1142 25.696 57.9435 25.312C57.7729 24.9493 57.6875 24.5547 57.6875 24.128C57.6875 23.2747 57.9649 22.6347 58.5195 22.208C59.0742 21.76 59.8209 21.4613 60.7595 21.312C61.6982 21.1627 62.7329 21.1307 63.8635 21.216L65.8795 21.568C64.5355 21.6107 63.5329 21.728 62.8715 21.92C62.2315 22.0907 61.9115 22.4427 61.9115 22.976C61.9115 23.296 62.0395 23.552 62.2955 23.744C62.5515 23.9147 62.9142 24 63.3835 24H68.5995C70.0289 24 71.2449 24.1493 72.2475 24.448C73.2715 24.768 74.0502 25.2907 74.5835 26.016C75.1169 26.7627 75.3835 27.776 75.3835 29.056V30.56H71.2235ZM65.8795 18.56C66.7969 18.56 67.5969 18.4107 68.2795 18.112C68.9835 17.8133 69.5275 17.3867 69.9115 16.832C70.2955 16.256 70.4875 15.5733 70.4875 14.784C70.4875 13.9733 70.2955 13.28 69.9115 12.704C69.5275 12.128 68.9942 11.6907 68.3115 11.392C67.6289 11.072 66.8182 10.912 65.8795 10.912C64.9622 10.912 64.1515 11.072 63.4475 11.392C62.7435 11.6907 62.1995 12.128 61.8155 12.704C61.4315 13.28 61.2395 13.9733 61.2395 14.784C61.2395 15.5733 61.4315 16.256 61.8155 16.832C62.1995 17.3867 62.7329 17.8133 63.4155 18.112C64.1195 18.4107 64.9409 18.56 65.8795 18.56ZM79.4123 8.096H83.5723V24H79.4123V8.096ZM90.9643 7.744C91.9456 7.744 92.8523 7.872 93.6843 8.128C94.5163 8.384 95.2416 8.77867 95.8603 9.312C96.4789 9.84533 96.9589 10.528 97.3003 11.36C97.6416 12.1707 97.8123 13.1413 97.8123 14.272V24H93.6523V15.008C93.6523 13.664 93.3216 12.6827 92.6603 12.064C92.0203 11.424 90.9643 11.104 89.4923 11.104C88.3829 11.104 87.3803 11.3173 86.4843 11.744C85.5883 12.1707 84.8629 12.7147 84.3083 13.376C83.7536 14.016 83.4336 14.688 83.3483 15.392L83.3163 13.76C83.4229 13.0133 83.6683 12.288 84.0523 11.584C84.4363 10.88 84.9483 10.24 85.5883 9.664C86.2496 9.06667 87.0283 8.59733 87.9243 8.256C88.8203 7.91467 89.8336 7.744 90.9643 7.744ZM110.471 3.296H114.727V24H110.471V3.296ZM119.694 8.096H123.854V24H119.694V8.096ZM131.246 7.744C132.227 7.744 133.134 7.872 133.966 8.128C134.798 8.384 135.523 8.77867 136.142 9.312C136.76 9.84533 137.24 10.528 137.582 11.36C137.923 12.1707 138.094 13.1413 138.094 14.272V24H133.934V15.008C133.934 13.664 133.603 12.6827 132.942 12.064C132.302 11.424 131.246 11.104 129.774 11.104C128.664 11.104 127.662 11.3173 126.766 11.744C125.87 12.1707 125.144 12.7147 124.59 13.376C124.035 14.016 123.715 14.688 123.63 15.392L123.598 13.76C123.704 13.0133 123.95 12.288 124.334 11.584C124.718 10.88 125.23 10.24 125.87 9.664C126.531 9.06667 127.31 8.59733 128.206 8.256C129.102 7.91467 130.115 7.744 131.246 7.744Z" fill="#E582BE"/>
<path d="M23.3303 16.024H27.6503C27.7356 16.7493 28.0663 17.4107 28.6423 18.008C29.2396 18.584 30.0183 19.0427 30.9783 19.384C31.9383 19.704 33.0156 19.864 34.2103 19.864C35.2983 19.864 36.1943 19.7467 36.8983 19.512C37.6023 19.2773 38.1249 18.9467 38.4663 18.52C38.8076 18.0933 38.9783 17.5813 38.9783 16.984C38.9783 16.408 38.7649 15.9707 38.3383 15.672C37.9116 15.352 37.2396 15.096 36.3223 14.904C35.4049 14.6907 34.1996 14.4773 32.7063 14.264C31.5329 14.0933 30.4236 13.8587 29.3783 13.56C28.3329 13.24 27.4049 12.8347 26.5943 12.344C25.8049 11.8533 25.1756 11.256 24.7063 10.552C24.2583 9.82667 24.0343 8.97333 24.0343 7.992C24.0343 6.776 24.3756 5.70933 25.0583 4.792C25.7623 3.87467 26.7969 3.16 28.1623 2.648C29.5276 2.136 31.2023 1.88 33.1863 1.88C36.1729 1.88 38.4663 2.52 40.0663 3.8C41.6876 5.05867 42.4769 6.79733 42.4343 9.016H38.2743C38.1889 7.75733 37.6556 6.85067 36.6743 6.296C35.7143 5.74133 34.4983 5.464 33.0263 5.464C31.6609 5.464 30.5303 5.66667 29.6343 6.072C28.7596 6.47733 28.3223 7.17067 28.3223 8.152C28.3223 8.536 28.4289 8.87733 28.6423 9.176C28.8556 9.45333 29.2183 9.69867 29.7303 9.912C30.2423 10.1253 30.9356 10.328 31.8103 10.52C32.6849 10.712 33.7729 10.904 35.0743 11.096C36.2903 11.2667 37.3889 11.5013 38.3703 11.8C39.3729 12.0773 40.2263 12.4507 40.9303 12.92C41.6556 13.368 42.2103 13.944 42.5943 14.648C42.9783 15.352 43.1703 16.216 43.1703 17.24C43.1703 18.4987 42.8396 19.5973 42.1783 20.536C41.5383 21.4533 40.5356 22.168 39.1703 22.68C37.8263 23.192 36.0769 23.448 33.9223 23.448C32.3863 23.448 31.0316 23.288 29.8583 22.968C28.6849 22.6267 27.6716 22.1787 26.8183 21.624C25.9649 21.0693 25.2716 20.4613 24.7383 19.8C24.2049 19.1387 23.8209 18.4773 23.5863 17.816C23.3729 17.1547 23.2876 16.5573 23.3303 16.024ZM51.149 0.119999V3.768H46.317V0.119999H51.149ZM46.637 7.096H50.797V23H46.637V7.096ZM62.8795 20.568C61.1515 20.568 59.6262 20.312 58.3035 19.8C57.0022 19.2667 55.9889 18.488 55.2635 17.464C54.5382 16.44 54.1755 15.2027 54.1755 13.752C54.1755 12.3227 54.5275 11.0853 55.2315 10.04C55.9355 8.99467 56.9382 8.184 58.2395 7.608C59.5622 7.032 61.1089 6.744 62.8795 6.744C63.3702 6.744 63.8395 6.776 64.2875 6.84C64.7569 6.904 65.2155 6.98933 65.6635 7.096L73.6955 7.128V10.264C72.6075 10.2853 71.4982 10.1573 70.3675 9.88C69.2582 9.58133 68.2769 9.26133 67.4235 8.92L67.3275 8.696C68.0529 9.03733 68.7355 9.464 69.3755 9.976C70.0155 10.4667 70.5275 11.0427 70.9115 11.704C71.3169 12.344 71.5195 13.0907 71.5195 13.944C71.5195 15.3307 71.1675 16.5253 70.4635 17.528C69.7595 18.5093 68.7569 19.2667 67.4555 19.8C66.1755 20.312 64.6502 20.568 62.8795 20.568ZM68.2235 29.56V28.792C68.2235 27.8107 67.9035 27.128 67.2635 26.744C66.6449 26.36 65.7915 26.168 64.7035 26.168H59.7435C58.7835 26.168 57.9729 26.0933 57.3115 25.944C56.6715 25.7947 56.1595 25.5813 55.7755 25.304C55.3915 25.0267 55.1142 24.696 54.9435 24.312C54.7729 23.9493 54.6875 23.5547 54.6875 23.128C54.6875 22.2747 54.9649 21.6347 55.5195 21.208C56.0742 20.76 56.8209 20.4613 57.7595 20.312C58.6982 20.1627 59.7329 20.1307 60.8635 20.216L62.8795 20.568C61.5355 20.6107 60.5329 20.728 59.8715 20.92C59.2315 21.0907 58.9115 21.4427 58.9115 21.976C58.9115 22.296 59.0395 22.552 59.2955 22.744C59.5515 22.9147 59.9142 23 60.3835 23H65.5995C67.0289 23 68.2449 23.1493 69.2475 23.448C70.2715 23.768 71.0502 24.2907 71.5835 25.016C72.1169 25.7627 72.3835 26.776 72.3835 28.056V29.56H68.2235ZM62.8795 17.56C63.7969 17.56 64.5969 17.4107 65.2795 17.112C65.9835 16.8133 66.5275 16.3867 66.9115 15.832C67.2955 15.256 67.4875 14.5733 67.4875 13.784C67.4875 12.9733 67.2955 12.28 66.9115 11.704C66.5275 11.128 65.9942 10.6907 65.3115 10.392C64.6289 10.072 63.8182 9.912 62.8795 9.912C61.9622 9.912 61.1515 10.072 60.4475 10.392C59.7435 10.6907 59.1995 11.128 58.8155 11.704C58.4315 12.28 58.2395 12.9733 58.2395 13.784C58.2395 14.5733 58.4315 15.256 58.8155 15.832C59.1995 16.3867 59.7329 16.8133 60.4155 17.112C61.1195 17.4107 61.9409 17.56 62.8795 17.56ZM76.4123 7.096H80.5723V23H76.4123V7.096ZM87.9643 6.744C88.9456 6.744 89.8523 6.872 90.6843 7.128C91.5163 7.384 92.2416 7.77867 92.8603 8.312C93.4789 8.84533 93.9589 9.528 94.3003 10.36C94.6416 11.1707 94.8123 12.1413 94.8123 13.272V23H90.6523V14.008C90.6523 12.664 90.3216 11.6827 89.6603 11.064C89.0203 10.424 87.9643 10.104 86.4923 10.104C85.3829 10.104 84.3803 10.3173 83.4843 10.744C82.5883 11.1707 81.8629 11.7147 81.3083 12.376C80.7536 13.016 80.4336 13.688 80.3483 14.392L80.3163 12.76C80.4229 12.0133 80.6683 11.288 81.0523 10.584C81.4363 9.88 81.9483 9.24 82.5883 8.664C83.2496 8.06667 84.0283 7.59733 84.9243 7.256C85.8203 6.91467 86.8336 6.744 87.9643 6.744ZM107.471 2.296H111.727V23H107.471V2.296ZM116.694 7.096H120.854V23H116.694V7.096ZM128.246 6.744C129.227 6.744 130.134 6.872 130.966 7.128C131.798 7.384 132.523 7.77867 133.142 8.312C133.76 8.84533 134.24 9.528 134.582 10.36C134.923 11.1707 135.094 12.1413 135.094 13.272V23H130.934V14.008C130.934 12.664 130.603 11.6827 129.942 11.064C129.302 10.424 128.246 10.104 126.774 10.104C125.664 10.104 124.662 10.3173 123.766 10.744C122.87 11.1707 122.144 11.7147 121.59 12.376C121.035 13.016 120.715 13.688 120.63 14.392L120.598 12.76C120.704 12.0133 120.95 11.288 121.334 10.584C121.718 9.88 122.23 9.24 122.87 8.664C123.531 8.06667 124.31 7.59733 125.206 7.256C126.102 6.91467 127.115 6.744 128.246 6.744Z" fill="black"/>
</svg>
