<svg width="324" height="13" viewBox="0 0 324 13" fill="none" xmlns="http://www.w3.org/2000/svg">
<line x1="149" y1="7" y2="7" stroke="black"/>
<path d="M157.83 10.132C156.994 10.132 156.264 9.98167 155.641 9.681C155.025 9.38033 154.544 8.955 154.2 8.405C153.862 7.855 153.694 7.19867 153.694 6.436C153.694 5.67333 153.862 5.017 154.2 4.467C154.544 3.90967 155.025 3.48433 155.641 3.191C156.264 2.89033 156.994 2.74 157.83 2.74C158.673 2.74 159.403 2.89033 160.019 3.191C160.635 3.48433 161.111 3.90967 161.449 4.467C161.793 5.017 161.966 5.67333 161.966 6.436C161.966 7.19867 161.793 7.855 161.449 8.405C161.111 8.955 160.635 9.38033 160.019 9.681C159.403 9.98167 158.673 10.132 157.83 10.132ZM157.83 9.032C158.387 9.032 158.878 8.93667 159.304 8.746C159.729 8.55533 160.063 8.26933 160.305 7.888C160.554 7.49933 160.679 7.01533 160.679 6.436C160.679 5.864 160.554 5.38733 160.305 5.006C160.063 4.61733 159.729 4.32767 159.304 4.137C158.878 3.939 158.387 3.84 157.83 3.84C157.28 3.84 156.788 3.939 156.356 4.137C155.923 4.32767 155.582 4.61733 155.333 5.006C155.083 5.38733 154.959 5.864 154.959 6.436C154.959 7.01533 155.083 7.49933 155.333 7.888C155.582 8.26933 155.923 8.55533 156.356 8.746C156.788 8.93667 157.28 9.032 157.83 9.032ZM163.4 10V2.872H167.613C168.141 2.872 168.6 2.949 168.988 3.103C169.377 3.24967 169.678 3.48067 169.89 3.796C170.103 4.104 170.209 4.5 170.209 4.984C170.209 5.30667 170.154 5.58533 170.044 5.82C169.934 6.04733 169.78 6.23433 169.582 6.381C169.384 6.52767 169.153 6.64133 168.889 6.722C168.633 6.80267 168.358 6.854 168.064 6.876L167.954 6.799C168.424 6.80633 168.812 6.85033 169.12 6.931C169.428 7.00433 169.663 7.14733 169.824 7.36C169.986 7.56533 170.066 7.86967 170.066 8.273V10H168.823V8.339C168.823 8.06033 168.772 7.844 168.669 7.69C168.574 7.52867 168.405 7.41867 168.163 7.36C167.929 7.294 167.591 7.261 167.151 7.261H164.654V10H163.4ZM164.654 6.238H167.613C168.053 6.238 168.387 6.128 168.614 5.908C168.842 5.688 168.955 5.39833 168.955 5.039C168.955 4.69433 168.842 4.43033 168.614 4.247C168.387 4.05633 168.053 3.961 167.613 3.961H164.654V6.238Z" fill="black"/>
<line x1="324" y1="7" x2="175" y2="7" stroke="black"/>
</svg>
