<svg width="22" height="21" viewBox="0 0 22 21" fill="none" xmlns="http://www.w3.org/2000/svg">
<ellipse cx="11.9612" cy="11.1366" rx="10.0004" ry="9.86364" fill="black"/>
<path d="M20.1712 9.86364C20.1712 15.0286 15.9243 19.2273 10.6708 19.2273C5.41737 19.2273 1.17041 15.0286 1.17041 9.86364C1.17041 4.69871 5.41737 0.5 10.6708 0.5C15.9243 0.5 20.1712 4.69871 20.1712 9.86364Z" fill="#FEF2E8" stroke="black"/>
<path d="M8.55402 5.85028L8.55405 5.85032C8.65332 5.75698 8.78479 5.70524 8.92113 5.70524C9.05745 5.70524 9.18892 5.75697 9.28818 5.85029L8.55402 5.85028ZM8.55402 5.85028L8.55148 5.85279L8.54813 5.8561L8.55402 5.85028ZM8.54964 13.914C8.50015 13.9604 8.46062 14.0163 8.43356 14.0785C8.4065 14.1407 8.39251 14.2077 8.39251 14.2755C8.39251 14.3433 8.4065 14.4103 8.43356 14.4725C8.46033 14.534 8.49933 14.5894 8.5481 14.6355L8.55148 14.6389L8.55145 14.6389L8.55405 14.6413C8.65332 14.7347 8.78479 14.7864 8.92113 14.7864C9.05745 14.7864 9.18892 14.7347 9.28818 14.6414C9.28819 14.6413 9.2882 14.6413 9.2882 14.6413L13.558 10.6287L8.57109 6.07902C8.55224 6.12234 8.54251 6.169 8.54251 6.21615C8.54251 6.2633 8.55224 6.30996 8.57109 6.35328C8.58995 6.39661 8.61755 6.4357 8.65221 6.46817L8.54949 6.57748L8.54961 6.5776C8.54962 6.57761 8.54963 6.57762 8.54964 6.57763L12.4539 10.2466L8.54964 13.914ZM8.54964 13.914L8.65221 14.0235M8.54964 13.914L8.54951 13.9141L8.65221 14.0235M8.65221 14.0235C8.61755 14.056 8.58995 14.095 8.57109 14.1384C8.55224 14.1817 8.54251 14.2283 8.54251 14.2755C8.54251 14.3226 8.55224 14.3693 8.57109 14.4126C8.58995 14.456 8.61755 14.495 8.65221 14.5275V14.0235ZM13.558 9.86296L9.2882 5.85032L13.558 10.6287C13.6103 10.5795 13.6521 10.5202 13.6807 10.4544C13.7093 10.3886 13.7241 10.3176 13.7241 10.2458C13.7241 10.1741 13.7093 10.1031 13.6807 10.0373C13.6521 9.97142 13.6103 9.91215 13.558 9.86296Z" fill="black" stroke="black" stroke-width="0.3"/>
</svg>
