<svg width="302" height="43" viewBox="0 0 302 43" fill="none" xmlns="http://www.w3.org/2000/svg">
<rect x="3" y="3" width="298.297" height="40" rx="5" fill="black"/>
<rect x="3" y="3" width="298.297" height="40" rx="5" fill="black"/>
<rect x="0.75" y="0.75" width="296.797" height="38.5" rx="4.25" fill="black"/>
<rect x="0.75" y="0.75" width="296.797" height="38.5" rx="4.25" fill="#E582BE"/>
<rect x="0.75" y="0.75" width="296.797" height="38.5" rx="4.25" stroke="black" stroke-width="1.5"/>
<path d="M111.466 20.512H113.626C113.669 20.8747 113.834 21.2053 114.122 21.504C114.421 21.792 114.81 22.0213 115.29 22.192C115.77 22.352 116.309 22.432 116.906 22.432C117.45 22.432 117.898 22.3733 118.25 22.256C118.602 22.1387 118.863 21.9733 119.034 21.76C119.205 21.5467 119.29 21.2907 119.29 20.992C119.29 20.704 119.183 20.4853 118.97 20.336C118.757 20.176 118.421 20.048 117.962 19.952C117.503 19.8453 116.901 19.7387 116.154 19.632C115.567 19.5467 115.013 19.4293 114.49 19.28C113.967 19.12 113.503 18.9173 113.098 18.672C112.703 18.4267 112.389 18.128 112.154 17.776C111.93 17.4133 111.818 16.9867 111.818 16.496C111.818 15.888 111.989 15.3547 112.33 14.896C112.682 14.4373 113.199 14.08 113.882 13.824C114.565 13.568 115.402 13.44 116.394 13.44C117.887 13.44 119.034 13.76 119.834 14.4C120.645 15.0293 121.039 15.8987 121.018 17.008H118.938C118.895 16.3787 118.629 15.9253 118.138 15.648C117.658 15.3707 117.05 15.232 116.314 15.232C115.631 15.232 115.066 15.3333 114.618 15.536C114.181 15.7387 113.962 16.0853 113.962 16.576C113.962 16.768 114.015 16.9387 114.122 17.088C114.229 17.2267 114.41 17.3493 114.666 17.456C114.922 17.5627 115.269 17.664 115.706 17.76C116.143 17.856 116.687 17.952 117.338 18.048C117.946 18.1333 118.495 18.2507 118.986 18.4C119.487 18.5387 119.914 18.7253 120.266 18.96C120.629 19.184 120.906 19.472 121.098 19.824C121.29 20.176 121.386 20.608 121.386 21.12C121.386 21.7493 121.221 22.2987 120.89 22.768C120.57 23.2267 120.069 23.584 119.386 23.84C118.714 24.096 117.839 24.224 116.762 24.224C115.994 24.224 115.317 24.144 114.73 23.984C114.143 23.8133 113.637 23.5893 113.21 23.312C112.783 23.0347 112.437 22.7307 112.17 22.4C111.903 22.0693 111.711 21.7387 111.594 21.408C111.487 21.0773 111.445 20.7787 111.466 20.512ZM125.375 12.56V14.384H122.959V12.56H125.375ZM123.119 16.048H125.199V24H123.119V16.048ZM131.241 22.784C130.377 22.784 129.614 22.656 128.953 22.4C128.302 22.1333 127.795 21.744 127.433 21.232C127.07 20.72 126.889 20.1013 126.889 19.376C126.889 18.6613 127.065 18.0427 127.417 17.52C127.769 16.9973 128.27 16.592 128.921 16.304C129.582 16.016 130.355 15.872 131.241 15.872C131.486 15.872 131.721 15.888 131.945 15.92C132.179 15.952 132.409 15.9947 132.633 16.048L136.649 16.064V17.632C136.105 17.6427 135.55 17.5787 134.985 17.44C134.43 17.2907 133.939 17.1307 133.513 16.96L133.465 16.848C133.827 17.0187 134.169 17.232 134.489 17.488C134.809 17.7333 135.065 18.0213 135.257 18.352C135.459 18.672 135.561 19.0453 135.561 19.472C135.561 20.1653 135.385 20.7627 135.033 21.264C134.681 21.7547 134.179 22.1333 133.529 22.4C132.889 22.656 132.126 22.784 131.241 22.784ZM133.913 27.28V26.896C133.913 26.4053 133.753 26.064 133.433 25.872C133.123 25.68 132.697 25.584 132.153 25.584H129.673C129.193 25.584 128.787 25.5467 128.457 25.472C128.137 25.3973 127.881 25.2907 127.689 25.152C127.497 25.0133 127.358 24.848 127.273 24.656C127.187 24.4747 127.145 24.2773 127.145 24.064C127.145 23.6373 127.283 23.3173 127.561 23.104C127.838 22.88 128.211 22.7307 128.681 22.656C129.15 22.5813 129.667 22.5653 130.233 22.608L131.241 22.784C130.569 22.8053 130.067 22.864 129.737 22.96C129.417 23.0453 129.257 23.2213 129.257 23.488C129.257 23.648 129.321 23.776 129.449 23.872C129.577 23.9573 129.758 24 129.993 24H132.601C133.315 24 133.923 24.0747 134.425 24.224C134.937 24.384 135.326 24.6453 135.593 25.008C135.859 25.3813 135.993 25.888 135.993 26.528V27.28H133.913ZM131.241 21.28C131.699 21.28 132.099 21.2053 132.441 21.056C132.793 20.9067 133.065 20.6933 133.257 20.416C133.449 20.128 133.545 19.7867 133.545 19.392C133.545 18.9867 133.449 18.64 133.257 18.352C133.065 18.064 132.798 17.8453 132.457 17.696C132.115 17.536 131.71 17.456 131.241 17.456C130.782 17.456 130.377 17.536 130.025 17.696C129.673 17.8453 129.401 18.064 129.209 18.352C129.017 18.64 128.921 18.9867 128.921 19.392C128.921 19.7867 129.017 20.128 129.209 20.416C129.401 20.6933 129.667 20.9067 130.009 21.056C130.361 21.2053 130.771 21.28 131.241 21.28ZM138.007 16.048H140.087V24H138.007V16.048ZM143.783 15.872C144.274 15.872 144.727 15.936 145.143 16.064C145.559 16.192 145.922 16.3893 146.231 16.656C146.54 16.9227 146.78 17.264 146.951 17.68C147.122 18.0853 147.207 18.5707 147.207 19.136V24H145.127V19.504C145.127 18.832 144.962 18.3413 144.631 18.032C144.311 17.712 143.783 17.552 143.047 17.552C142.492 17.552 141.991 17.6587 141.543 17.872C141.095 18.0853 140.732 18.3573 140.455 18.688C140.178 19.008 140.018 19.344 139.975 19.696L139.959 18.88C140.012 18.5067 140.135 18.144 140.327 17.792C140.519 17.44 140.775 17.12 141.095 16.832C141.426 16.5333 141.815 16.2987 142.263 16.128C142.711 15.9573 143.218 15.872 143.783 15.872ZM153.536 13.648H155.664V24H153.536V13.648ZM158.148 16.048H160.228V24H158.148V16.048ZM163.924 15.872C164.414 15.872 164.868 15.936 165.284 16.064C165.7 16.192 166.062 16.3893 166.372 16.656C166.681 16.9227 166.921 17.264 167.092 17.68C167.262 18.0853 167.348 18.5707 167.348 19.136V24H165.268V19.504C165.268 18.832 165.102 18.3413 164.772 18.032C164.452 17.712 163.924 17.552 163.188 17.552C162.633 17.552 162.132 17.6587 161.684 17.872C161.236 18.0853 160.873 18.3573 160.596 18.688C160.318 19.008 160.158 19.344 160.116 19.696L160.1 18.88C160.153 18.5067 160.276 18.144 160.468 17.792C160.66 17.44 160.916 17.12 161.236 16.832C161.566 16.5333 161.956 16.2987 162.404 16.128C162.852 15.9573 163.358 15.872 163.924 15.872Z" fill="black"/>
<ellipse cx="191.961" cy="20.1366" rx="10.0004" ry="9.86364" fill="black"/>
<path d="M200.171 18.8636C200.171 24.0286 195.924 28.2273 190.671 28.2273C185.417 28.2273 181.17 24.0286 181.17 18.8636C181.17 13.6987 185.417 9.5 190.671 9.5C195.924 9.5 200.171 13.6987 200.171 18.8636Z" fill="#FEF2E8" stroke="black"/>
<path d="M188.554 14.8503L188.554 14.8503C188.653 14.757 188.785 14.7052 188.921 14.7052C189.057 14.7052 189.189 14.757 189.288 14.8503L188.554 14.8503ZM188.554 14.8503L188.551 14.8528L188.548 14.8561L188.554 14.8503ZM188.55 22.914C188.5 22.9604 188.461 23.0163 188.434 23.0785C188.406 23.1407 188.393 23.2077 188.393 23.2755C188.393 23.3433 188.406 23.4103 188.434 23.4725C188.46 23.534 188.499 23.5894 188.548 23.6355L188.551 23.6389L188.551 23.6389L188.554 23.6413C188.653 23.7347 188.785 23.7864 188.921 23.7864C189.057 23.7864 189.189 23.7347 189.288 23.6414C189.288 23.6413 189.288 23.6413 189.288 23.6413L193.558 19.6287L188.571 15.079C188.552 15.1223 188.543 15.169 188.543 15.2162C188.543 15.2633 188.552 15.31 188.571 15.3533C188.59 15.3966 188.618 15.4357 188.652 15.4682L188.549 15.5775L188.55 15.5776C188.55 15.5776 188.55 15.5776 188.55 15.5776L192.454 19.2466L188.55 22.914ZM188.55 22.914L188.652 23.0235M188.55 22.914L188.55 22.9141L188.652 23.0235M188.652 23.0235C188.618 23.056 188.59 23.095 188.571 23.1384C188.552 23.1817 188.543 23.2283 188.543 23.2755C188.543 23.3226 188.552 23.3693 188.571 23.4126C188.59 23.456 188.618 23.495 188.652 23.5275V23.0235ZM193.558 18.863L189.288 14.8503L193.558 19.6287C193.61 19.5795 193.652 19.5202 193.681 19.4544C193.709 19.3886 193.724 19.3176 193.724 19.2458C193.724 19.1741 193.709 19.1031 193.681 19.0373C193.652 18.9714 193.61 18.9121 193.558 18.863Z" fill="black" stroke="black" stroke-width="0.3"/>
</svg>
